<svg id="Слой_1" xmlns="http://www.w3.org/2000/svg" viewBox="0 0 38.36 40"><defs><style>.cls-1{fill:#b6b6b6;}</style></defs><title>Ашер</title><path class="cls-1" d="M38.34,5.87s0-.06,0-.09a.39.39,0,0,0-.06-.11.08.08,0,0,0,0,0l0,0s0,0,0,0L33.08.17,33,.13l0,0h0l-.1,0-.11,0H5.62L5.51,0l-.09,0h0l0,.05a.1.1,0,0,0,0,0L.15,5.56l0,0,0,0s0,0,0,0l0,.1s0,.07,0,.1,0,0,0,.06V34.4a.53.53,0,0,0,.18.4l5,4.51a.53.53,0,0,0,.22.61.57.57,0,0,0,.28.08.53.53,0,0,0,.24-.06.44.44,0,0,0,.23.06h26.1a.46.46,0,0,0,.23-.06.46.46,0,0,0,.23.06.6.6,0,0,0,.29-.08.54.54,0,0,0,.21-.61l5-4.51a.57.57,0,0,0,.18-.4V5.93A.14.14,0,0,0,38.34,5.87ZM32.78,1.41,37,5.86,34.5,7.75l-3.42-3.6Zm-5.2,8.4,1.15-1.87,1.93,2.66-1.44,1.08Zm1,2.79V27.4l-1.93,2.2h-15L9.75,27.4V12.6l1.93-2.2h15Zm-2-3.27H11.74L10.62,7.52H27.74Zm-15.84.48L9.14,11.68,7.7,10.6,9.62,7.94Zm-2.1,2.86V27.33l-1.2.89V11.78Zm.46,15.65,1.64,1.87L9.62,32.06,7.7,29.4Zm2.6,2.35H26.62l1.12,1.81H10.62Zm15.84-.48,1.64-1.87,1.44,1.08-1.93,2.66Zm2.09-2.86V12.67l1.2-.89V28.22ZM29.34,7,30.5,5.09l3.13,3.3L31.52,10Zm-.94-.51H10l-1-1.69H29.45ZM9,7,6.84,10,4.72,8.39l3.14-3.3Zm-2.6,4V29l-2,1.47v-21ZM6.84,30,9,33,7.86,34.91l-3.14-3.3ZM10,33.55H28.4l1.05,1.69H8.9ZM29.34,33l2.18-3,2.11,1.57-3.13,3.3Zm2.6-4V11l2-1.47v21ZM31.73,1.07,30.12,3.69H8.24L6.62,1.07ZM5.57,1.41l1.7,2.74L3.86,7.75,1.34,5.87ZM1.07,7,3.39,8.73V31.27L1.07,33ZM5.71,38.37,1.17,34.25l2.69-2,3.41,3.6Zm.91.56,1.62-2.62H30.12l1.61,2.62Zm26-.56-1.56-2.52,3.42-3.6,2.68,2ZM37.29,33,35,31.27V8.73L37.29,7Z"/></svg>
