<svg id="Слой_1" xmlns="http://www.w3.org/2000/svg" viewBox="0 0 25.56 40"><defs><style>.cls-1{fill:#b6b6b6;}</style></defs><title>Груша</title><path class="cls-1" d="M25.53,27.18q0-.21,0-.24a28.31,28.31,0,0,0-.31-4.46.13.13,0,0,1,0-.06,34.07,34.07,0,0,0-2.79-9.15.66.66,0,0,0-.12-.27,44.21,44.21,0,0,0-4.51-7.49.37.37,0,0,0-.05-.11s-.05,0-.07-.06A41.25,41.25,0,0,0,13.14.13h0l-.06,0L13,.06h0a.05.05,0,0,0,0,0l-.07,0h-.2L12.6,0l0,0h0l0,0-.06,0h0a41.06,41.06,0,0,0-4.55,5.2.27.27,0,0,0-.08.07.67.67,0,0,0-.06.12A44.26,44.26,0,0,0,3.25,13l0,0a.59.59,0,0,0-.13.29A34.24,34.24,0,0,0,.33,22.4a.86.86,0,0,0,0,.17A30.47,30.47,0,0,0,0,27s0,.08,0,.19a.55.55,0,0,0,.06.45,21.33,21.33,0,0,0,1.24,4.3.13.13,0,0,0,0,.06.39.39,0,0,0,.1.19,15,15,0,0,0,2.47,4,.44.44,0,0,0,.18.2A10.82,10.82,0,0,0,7.65,39l0,0h.06a11.79,11.79,0,0,0,4.82,1H13a11.79,11.79,0,0,0,4.82-1h.06l0,0a10.87,10.87,0,0,0,3.57-2.6.6.6,0,0,0,.18-.21,14.86,14.86,0,0,0,2.47-4,.69.69,0,0,0,.1-.19.17.17,0,0,0,0-.07,20.2,20.2,0,0,0,1.23-4.28A.54.54,0,0,0,25.53,27.18Zm-2.15,4-1-.27L24,29.19A19.44,19.44,0,0,1,23.38,31.2Zm-5.49,6.6-.55-1.23,2.45,0A9.87,9.87,0,0,1,17.89,37.8ZM5.71,36.52l2.5,0-.56,1.25A9.81,9.81,0,0,1,5.71,36.52ZM1.48,29.15l1.66,1.78-1,.28A18.49,18.49,0,0,1,1.48,29.15ZM19.42,9.79,16.77,6.87l.46-.37C18,7.49,18.69,8.59,19.42,9.79ZM12,9.26l-3.61,3.9L9.88,7.7Zm.8,25L7.54,32.3,5.83,27.37l1.94-12,5-5.41,5,5.41,1.94,12L18,32.3ZM5.32,29.14l.86,2.51-1.41-.71Zm14.92,0,.55,1.8-1.41.71Zm.24-3.8-1.17-7.23,2.3,4.2Zm-1.7-10.42L17.1,8.83l4.31,4.75.19,6.48ZM15.68,7.7l1.51,5.46-3.61-3.9Zm-2.9.82L10.26,6.65l2.52-4.94L15.3,6.65ZM5.08,25.34,4,22.31l2.3-4.2Zm-.36,2.09-.83,2.74-2.7-2.92,2.08-3.72Zm2,5.7,1.35,2.36L4.9,35.43l-.18-3.32ZM9.27,35.4l-1-1.67,2.85,1Zm3.51,0,2.71.92-2.71,2.47-2.71-2.47Zm1.62-.58,2.85-1-1,1.67Zm4.42-1.64,2-1-.18,3.32-3.2.06Zm2.85-3-.83-2.74,1.45-3.9,2.08,3.72Zm.88-13.91A31,31,0,0,1,24.1,22l-1.39-.18ZM16.17,6,15,3.62c.5.59,1.05,1.27,1.63,2ZM9.39,6,9,5.65c.57-.76,1.13-1.44,1.63-2ZM6.78,14.92,4,20.06l.19-6.48L8.46,8.83ZM2.85,21.78,1.47,22A31.57,31.57,0,0,1,3,16.28ZM1.31,23.06l1.07-.13L1.11,25.2C1.15,24.48,1.21,23.76,1.31,23.06Zm2.33,8.85.13,2.44a14.89,14.89,0,0,1-1.21-2.14Zm5.58,5,2.1,1.92a10.65,10.65,0,0,1-2.68-.61Zm7.12,0,.58,1.29a10.42,10.42,0,0,1-2.68.62Zm5.58-5,1,.29a16.26,16.26,0,0,1-1.15,2Zm1.26-9,1.08.13c.09.71.16,1.43.2,2.15ZM8.33,6.51l.46.36L6.16,9.78C6.88,8.58,7.61,7.49,8.33,6.51Z"/></svg>
