<svg id="Слой_1" xmlns="http://www.w3.org/2000/svg" viewBox="0 0 27.13 40.04"><defs><style>.cls-1{fill:#b6b6b6;}</style></defs><title>Изумруд</title><path class="cls-1" d="M27.13,22.29V17.5q0-5.21,0-10.43a1.43,1.43,0,0,0,0-.29l0,0-.05-.07a2,2,0,0,0-.3-.76C26.18,5,25.57,4.08,25,3.16L23.37.76A1.39,1.39,0,0,0,23.06.4v0h0a1.1,1.1,0,0,0-.26-.15L22.63,0l-.05.15c-.11,0-.19,0-.35,0-5.77,0-11.54,0-17.31,0a1.63,1.63,0,0,0-.36,0l0-.18L4.34.25a.71.71,0,0,0-.22.13h0v0a1.4,1.4,0,0,0-.34.38c-.55.84-1.1,1.68-1.66,2.51S.91,5.07.33,6a2,2,0,0,0-.3.78l0,0H0A1.64,1.64,0,0,0,0,7Q0,20,0,33a1.94,1.94,0,0,0,0,.24H0l0,0a2,2,0,0,0,.3.79c.57.88,1.15,1.74,1.72,2.61s1.11,1.67,1.66,2.51a1.57,1.57,0,0,0,.36.4l0,.06h.1l.17.09.07.1,0-.06a1.72,1.72,0,0,0,.52.07H22.21a1.94,1.94,0,0,0,.36,0l.06.18.17-.25.18-.1h.09l0,0a1.67,1.67,0,0,0,.35-.39c.51-.78,1-1.56,1.54-2.33l1.87-2.84a2.16,2.16,0,0,0,.28-.75l0,0h0c0-.1,0-.19,0-.28C27.13,29.42,27.13,25.86,27.13,22.29ZM24.42,8.69V31.36q-.39-.24-.72-.48a.42.42,0,0,1-.06-.23q0-10.63,0-21.28a.42.42,0,0,1,.12-.24A6.88,6.88,0,0,1,24.42,8.69ZM23.27,8.3,23,7.88,21.61,5.76a.35.35,0,0,1,0-.14c.15-.49.31-1,.48-1.5L24.38,7.6ZM21.5,9.42l-.05-.08-.74-1c.14-.49.3-1,.47-1.5l1.29,2Zm-.56,19.94a2,2,0,0,1-.7,1.36c-.12.14-.24.27-.35.41H18.36q-5.44,0-10.89,0a1,1,0,0,1-.52-.3,2.8,2.8,0,0,1-.77-2.27c0-2.07,0-4.16,0-6.19,0-.8,0-1.61,0-2.42V10.62a2,2,0,0,1,.67-1.28q.19-.21.36-.42H9c3.57,0,7.13,0,10.7,0a1,1,0,0,1,.52.29A2.79,2.79,0,0,1,21,11.51C20.91,17.56,20.92,23.56,20.94,29.36ZM6.79,33.7l0-.09c.15-.51.3-1,.47-1.44l.13-.09c4.1,0,8.21,0,12.3,0,0,0,.09,0,.1,0,.18.49.33,1,.5,1.5l0,.09ZM20.33,6.4c-.17.53-.33,1-.52,1.53a.22.22,0,0,1-.1,0H7.45l-.14,0h0c-.19-.49-.34-1-.51-1.5l0-.08H20.35Zm-14,2c-.2.3-.42.59-.65.9l-.08.11-1-.61L6,6.84c.17.51.32,1,.46,1.43A.3.3,0,0,1,6.36,8.41ZM4.47,9.8a6.16,6.16,0,0,1,.73.48,1,1,0,0,1,.07.42v7.62q0,5.5,0,11c0,.38-.11.49-.34.61a4.93,4.93,0,0,0-.48.28ZM5.63,30.63l.09.11c.23.31.45.6.65.91a.35.35,0,0,1,0,.18c-.13.45-.28.89-.44,1.37l-1.29-2Zm15.17,1c.19-.29.4-.56.62-.86l.08-.11,1,.61-1.29,2c-.17-.51-.32-1-.45-1.42A.4.4,0,0,1,20.8,31.6Zm1.06-12.89V16.57c0-1.89,0-3.78,0-5.67,0-.52.1-.73.46-.89a3,3,0,0,0,.35-.19V30.23a4.18,4.18,0,0,0-.57-.33c-.18-.09-.23-.18-.23-.49q0-4,0-8.07ZM20.41,5.34H6.77c-.33,0-.34,0-.4-.25-.11-.43-.25-.86-.4-1.31l0-.09H21.2l0,.09c-.16.52-.32,1-.51,1.51A.87.87,0,0,1,20.41,5.34Zm-14,29.43a.33.33,0,0,1,.13-.07q7,0,14,0s.13,0,.12,0c.19.51.36,1,.53,1.57l0,.07H5.93l0-.08C6.12,35.73,6.29,35.21,6.45,34.77Zm-.93-29C5,6.52,4.52,7.29,4,8.09l-.14.21-1.1-.7L5.07,4.12c.18.57.35,1.08.5,1.54A.44.44,0,0,1,5.52,5.75Zm-2,23.08v1c0,1,0,1.18-.8,1.53V8.69a4.86,4.86,0,0,1,.73.48.75.75,0,0,1,.06.37Q3.51,19.19,3.5,28.83Zm.36,2.91.21.32c.51.78,1,1.54,1.49,2.33l-.49,1.54L2.75,32.44ZM23.11,32l.16-.25,1.11.7-2.32,3.48c-.18-.54-.34-1.06-.48-1.59C22.08,33.55,22.59,32.79,23.11,32ZM1.71,8.27q0,11.75,0,23.51a.56.56,0,0,1-.21.31,4.07,4.07,0,0,1-.55.38V7.58c.27.17.52.32.73.47A.81.81,0,0,1,1.71,8.27Zm23.68.44c0-.56.13-.79.53-1l.25-.13V32.46c-.76-.46-.76-.6-.76-1.75V26.4Q25.41,17.55,25.39,8.71ZM23.18,4.15a2,2,0,0,1-.34-2.45h0l3.23,4.85-.88.56-.45-.7A25.84,25.84,0,0,0,23.18,4.15ZM22,1.22c-.16.51-.31,1-.46,1.41a.71.71,0,0,1-.31.09q-3.82,0-7.65,0H5.85c-.26,0-.26,0-.31-.2-.11-.44-.26-.86-.41-1.31l0-.1H22ZM2.29,6.58,2,7.1l-.89-.56L4.28,1.7c.15.45.28.86.4,1.29C3.89,4.19,3.1,5.38,2.29,6.58ZM2,32.94l2,3c.79,1.19.9,1.39.39,2.49L1.06,33.51Zm3.16,5.91c.16-.51.31-1,.48-1.43a.42.42,0,0,1,.14-.09H21.41s.11,0,.11,0c.18.49.34,1,.5,1.51l0,.08h-17Zm19.73-5.39.34-.51.89.56-3.22,4.84c-.15-.46-.29-.89-.41-1.28Z"/></svg>
