<svg id="Слой_1" xmlns="http://www.w3.org/2000/svg" viewBox="0 0 41 41"><defs><style>.cls-1{fill:#b6b6b6;}</style></defs><title>Круг</title><path class="cls-1" d="M20.5,0A20.5,20.5,0,1,0,41,20.5,20.53,20.53,0,0,0,20.5,0ZM30,16.22s0,.08.05.13a7.78,7.78,0,0,1,.88,4l0,.1,0,.1a7.83,7.83,0,0,1-.88,4.06.61.61,0,0,0-.05.12c-.11.26-.24.53-.37.79a5.88,5.88,0,0,1-1.71,2.28l-.13.14a5.83,5.83,0,0,1-2.22,1.67c-.3.14-.6.29-.89.41h0a7.93,7.93,0,0,1-4.12.91l-.1,0-.1,0a7.74,7.74,0,0,1-4.08-.89l-.07,0-.85-.39A5.81,5.81,0,0,1,13.12,28L13,27.83a5.83,5.83,0,0,1-1.69-2.25c-.13-.27-.26-.54-.37-.81a1.17,1.17,0,0,1-.05-.11A7.94,7.94,0,0,1,10,20.6l0-.1,0-.1a7.83,7.83,0,0,1,.88-4.06.61.61,0,0,0,.05-.12c.11-.26.24-.53.37-.79A5.88,5.88,0,0,1,13,13.15l.14-.14a5.75,5.75,0,0,1,2.22-1.67l.87-.41h0a8,8,0,0,1,4.11-.9l.1,0,.1,0c1.15-.23,3,.35,5,1.33A5.79,5.79,0,0,1,27.82,13l.14.14a5.83,5.83,0,0,1,1.69,2.25C29.78,15.69,29.91,16,30,16.22ZM24.88,9.94c-.77-.33-1.62-.63-2.51-.92,1-.25,2.09-.48,3.14-.69.6.9,1.18,1.81,1.74,2.72Q26,10.4,24.88,9.94Zm-8.81,0c-.76.31-1.56.69-2.38,1.11.56-.91,1.15-1.82,1.75-2.72,1,.21,2.11.45,3.15.7C17.69,9.3,16.85,9.61,16.07,9.93ZM9.89,16.12c-.32.76-.62,1.6-.9,2.48-.25-1-.48-2.09-.69-3.14.9-.6,1.8-1.18,2.71-1.73C10.59,14.55,10.21,15.36,9.89,16.12Zm0,8.76c.32.76.7,1.57,1.12,2.39-.91-.55-1.82-1.14-2.72-1.74.21-1.05.45-2.11.7-3.15C9.27,23.27,9.57,24.11,9.89,24.88ZM16,31.05c.77.33,1.63.64,2.53.93-1,.25-2.09.48-3.14.69-.6-.9-1.18-1.81-1.74-2.72C14.5,30.37,15.28,30.74,16,31.05Zm8.81,0c.77-.32,1.57-.7,2.4-1.12-.56.91-1.15,1.82-1.74,2.72-1.06-.21-2.12-.45-3.16-.7C23.24,31.7,24.08,31.4,24.85,31.08Zm6.2-6.2c.32-.76.62-1.6.9-2.48.25,1,.48,2.09.69,3.14-.9.6-1.8,1.18-2.71,1.73C30.35,26.45,30.73,25.64,31.05,24.88Zm0-8.75c-.31-.77-.69-1.57-1.12-2.4.91.56,1.82,1.14,2.72,1.74-.21,1-.45,2.11-.7,3.15C31.67,17.74,31.37,16.9,31.05,16.13ZM29,12c-.74-1.3-1.57-2.61-2.39-3.87C29.44,7.58,32.14,7.19,34,7c-.23,1.88-.63,4.58-1.17,7.42C31.6,13.56,30.29,12.74,29,12Zm-8.5-3.52c-1.45-.4-3-.75-4.44-1.05C17.67,5,19.3,2.84,20.47,1.35c1.18,1.49,2.8,3.68,4.44,6.08C23.44,7.73,21.93,8.07,20.48,8.47ZM12,12c-1.3.75-2.61,1.57-3.87,2.4-.54-2.86-.93-5.56-1.15-7.45,1.88.23,4.58.63,7.42,1.17C13.53,9.37,12.71,10.69,12,12Zm-3.52,8.5c-.4,1.45-.75,3-1,4.44C5,23.29,2.81,21.67,1.32,20.5,2.81,19.33,5,17.7,7.4,16.06,7.7,17.54,8,19,8.44,20.49ZM12,29c.74,1.3,1.57,2.61,2.4,3.87-2.86.54-5.56.93-7.45,1.15.23-1.88.63-4.58,1.17-7.43C9.34,27.43,10.65,28.26,12,29Zm8.5,3.52c1.45.4,3,.75,4.44,1-1.63,2.4-3.26,4.58-4.43,6.07C19.3,38.16,17.67,36,16,33.57,17.51,33.27,19,32.93,20.46,32.53ZM29,29c1.3-.75,2.61-1.57,3.87-2.39.54,2.85.93,5.55,1.15,7.44-1.88-.23-4.58-.63-7.42-1.17C27.41,31.63,28.23,30.31,29,29Zm4.56-4.07c-.3-1.48-.64-3-1-4.43.4-1.45.75-3,1-4.44,2.4,1.64,4.58,3.26,6.07,4.43C38.13,21.67,35.94,23.3,33.54,24.94Zm.66-9.65,4.52-1.69A19.5,19.5,0,0,1,40,19.48C38.82,18.61,36.69,17,34.2,15.29Zm-.31-.95c.54-2.9.9-5.47,1.08-6.86a19.75,19.75,0,0,1,3.38,5.19ZM26.18,7.18,28,2.51A19.36,19.36,0,0,1,33.52,6C32.05,6.21,29.27,6.59,26.18,7.18Zm-.76-.79c-1.6-2.31-3.08-4.27-3.91-5.34a19.41,19.41,0,0,1,5.56,1.11Zm-10.21.46L13.67,2.26a19.32,19.32,0,0,1,5.76-1.21C18.54,2.2,16.92,4.35,15.21,6.85Zm-1,.21C11.4,6.53,8.89,6.18,7.5,6a19.56,19.56,0,0,1,5.24-3.39ZM7,14.15l-4.12-2A19.6,19.6,0,0,1,6,7.51C6.17,8.88,6.52,11.35,7,14.15Zm-.14,1c-2.52,1.72-4.67,3.35-5.84,4.25a19.4,19.4,0,0,1,1.44-6.39ZM6.65,25.64,2.08,26.83a19.1,19.1,0,0,1-1-5.27C2.18,22.43,4.24,24,6.65,25.64Zm.42.93c-.55,2.9-.91,5.48-1.09,6.9a19.63,19.63,0,0,1-3.56-5.69Zm7,7.38-2,4.1A19.78,19.78,0,0,1,7.47,35C8.85,34.8,11.31,34.46,14.1,34Zm1.05.12c1.74,2.54,3.38,4.72,4.28,5.88A19.71,19.71,0,0,1,13,38.48Zm10.46.26,1.75,4.4A19.61,19.61,0,0,1,21.51,40C22.37,38.83,23.94,36.76,25.61,34.33Zm.9-.43c2.95.56,5.57.92,7,1.1a19.52,19.52,0,0,1-5.2,3.37Zm7.32-7.5,4.27,2.45A19.73,19.73,0,0,1,35,33.55C34.77,32.11,34.4,29.41,33.83,26.4Zm.56-.83c2.42-1.65,4.46-3.21,5.56-4.05a19.26,19.26,0,0,1-1.43,6.41Z"/></svg>
