<svg id="Слой_1" xmlns="http://www.w3.org/2000/svg" viewBox="0 0 37.37 40"><defs><style>.cls-1{fill:#b6b6b6;}</style></defs><title>Кушон</title><path class="cls-1" d="M37.31,11.49l-.07-.17a32,32,0,0,0-4.3-6.66h0A13.78,13.78,0,0,0,26.4.06h0l-.11,0-.14,0H11.23L11.1,0,11,.06h0a13.75,13.75,0,0,0-6.52,4.6h0a32,32,0,0,0-4.3,6.66h0l-.08.16a.69.69,0,0,0,0,.24v16.2a.59.59,0,0,0,.05.23l.12.27.08.17h0a26.58,26.58,0,0,0,4.19,6.64h0l.09.1h0A15.91,15.91,0,0,0,10.86,40L11,40H26.35l.16,0a16,16,0,0,0,6.32-4.64h0l0,0,.07-.07h0a26.69,26.69,0,0,0,4.19-6.64h0l.08-.18.12-.26a.59.59,0,0,0,0-.23V11.73A.53.53,0,0,0,37.31,11.49Zm-1.07,16-.53-.28-.08,0L35.22,27l-.14-.07-.31-.15-.15-.07-.25-.12-.15-.06-.2-.09-.14-.06-.18-.07-.12-.05-.15-.06-.11,0-.1,0,3.06-4.37v5.8h0Zm-9.6,11.21a.65.65,0,0,0,0-.13l-.09-.31-.06-.19c0-.1-.06-.2-.1-.3l-.06-.19c0-.1-.07-.21-.11-.32a1.21,1.21,0,0,0-.05-.14L26,36.7h0c0-.15-.1-.29-.16-.43a.3.3,0,0,0,0-.1l-.11-.3-.05-.13-.09-.23-.06-.14c0-.06-.05-.12-.07-.17l0-.09h.08l.81,0h.24l.72,0h.21l.91.06h.26l.68,0,.33,0,.7,0h.21l.73.06A15.74,15.74,0,0,1,26.64,38.72Zm-6.42-1.26-.13.12-.59.58-.12.12-.47.5-.09.1h-.27l-.09-.1-.48-.5-.12-.12-.58-.58-.14-.12L16.66,37l-.15-.13-.57-.52-.06-.05-.5-.44-.14-.11-.46-.39,0,0L14.29,35l-.12-.1-.28-.22-.07-.06,4.86-3.08,4.87,3.08-.07.06-.28.22-.12.1-.45.37,0,0-.47.4-.13.11-.5.44-.06.05-.58.52-.14.13Zm-8.46-1.72a.61.61,0,0,0,0,.12l-.12.3,0,.1c-.05.14-.1.28-.16.43h0c-.05.14-.1.29-.16.44a.58.58,0,0,1-.05.14c0,.11-.07.22-.11.33l-.06.17-.09.31-.06.19-.1.31a.65.65,0,0,1,0,.13,15.88,15.88,0,0,1-4.59-3.29l.73-.06h.21l.71,0,.33,0,.68,0h.26l.91-.06h.21l.72,0h.24l.8,0H12l0,.09a.87.87,0,0,0-.07.17l-.06.14Q11.81,35.61,11.76,35.74ZM4.34,33.39A25.78,25.78,0,0,1,1.46,28.6h0l.56-.3H2l.46-.23L2.64,28l.28-.15.15-.07.23-.11.14-.06.21-.1.11,0L4,27.33l.09,0,.15-.06.09,0,.12,0h0l-.09,2.93ZM1.13,27.51l0,0h0v-5.8l2,2.87,1,1.5-.09,0-.11,0-.16.06-.11.05-.2.08-.11,0-.25.12-.11,0-.3.14-.1.05-.35.17-.1,0-.42.22-.08,0Zm9.6-26.2c0,.05,0,.1,0,.15s.05.19.08.28a1.72,1.72,0,0,1,.07.21l.09.28a1.59,1.59,0,0,0,.07.2l.09.28.06.18.12.32s0,.08,0,.12.1.28.16.41a.75.75,0,0,0,0,.16,2.44,2.44,0,0,1,.1.24l.06.16.08.2.06.16.07.15,0,.1h-.1l-.8,0h-.23l-.78,0H10L9,4.77H8.86L8,4.71l-.24,0-.85-.06h-.1L6,4.56A12.32,12.32,0,0,1,10.73,1.31Zm6.42,1.23.12-.12.59-.58L18,1.72l.48-.5.09-.1h.27l.07.08.51.53.1.1c.19.2.4.4.6.59a.57.57,0,0,0,.11.11l.5.47.14.13.58.52.05.05.51.44.13.11.49.42h0l.48.4.06,0,.39.31L18.68,8.51,13.82,5.43l.39-.31.06,0,.48-.4h0l.5-.42.12-.11.53-.45,0,0,.58-.52L16.66,3ZM25.6,4.3l.06-.16.09-.24.06-.16L26,3.33,26,3.21c0-.1.07-.21.11-.32a1.34,1.34,0,0,1,.07-.18l.09-.28c0-.07,0-.13.07-.2L26.44,2l.06-.21.09-.28c0-.05,0-.1,0-.15a12.28,12.28,0,0,1,4.73,3.25l-.81.06h-.09l-.86.06-.23,0-.86,0H28.4l-1,.06h-.16l-.77,0h-.23l-.81,0h-.1l0-.1.06-.15.07-.16A1.67,1.67,0,0,1,25.6,4.3Zm5.72,30-.47,0-.44,0-.67-.05-.29,0-1-.06h-.26l-.72,0-.35,0-.59,0h-.38l-.53,0h-.5L26,28.61l5.8-1.42v0l.2,7.12h-.15ZM11.72,34l-.53,0h-.38l-.59,0-.36,0-.72,0H8.89l-1,.06-.3,0L7,34.24l-.43,0-.48,0-.5,0H5.4l.2-7.12v0l5,1.22.84.2.17,1.1L12.22,34h-.5ZM5.91,5.68l.65.05.32,0,.75.06h.24l1,.07H9l.89.05.29,0,.69,0h.29l.66,0h.43l-.64,4.18-.18,1.18L10,11.73,5.6,12.81l0-1.29L5.4,5.64h.21ZM25.58,6l.65,0h.3l.69,0,.28,0,.89-.05h.09l1-.07h.24l.75-.06.31,0,.66-.05.29,0H32l-.17,5.88,0,1.29L26,11.39,25.15,6h.43Zm5,9.58-1.64,3.12-1.4-3.38-1.13-2.69,5.06,1.25ZM13.09,32.5,12.56,29,17.46,31l-4.2,2.66Zm-7-6.75,2.34-4.47L11,27.35,5.89,26.1ZM5.89,13.9,11,12.65,9.87,15.24,8.42,18.72l-1.7-3.26Zm7.37-7.51,4.2,2.66-4.09,1.61-.81.31.38-2.5Zm-1,21.33L9.07,20l3.22-7.72,6.39-2.51h0l4.68,1.85,1.72.67L28.3,20l-1.21,2.89-2,4.83-1.5.58-4.9,1.94L18.06,30Zm11.88,1.55L24.8,29l-.69,4.58L19.91,31ZM24.11,6.39,24.8,11,19.91,9.05,23.2,7Zm2.3,21,2-4.76.54-1.31,2.14,4.08.39.74ZM1.21,20l3.67-5.23.13-.2L7.86,20,5,25.43l-3-4.23Zm31.14,5.43-.42-.81L29.51,20l2.84-5.43,2.54,3.62L36.15,20Zm3.93-13v5.8l-1.2-1.72L33.22,13.9l.14-.05.08,0,.18-.07.1,0,.22-.09.1-.05.34-.15h0q.39-.16.87-.42l.09-.05.42-.21.14-.08ZM36,11.35l-.56.31-.06,0-.44.23-.13.06-.32.17-.13.06-.28.13-.1.05-.31.14h0l-.29.12-.05,0-.2.08-.07,0-.15.05h0L33,6.52a31.79,31.79,0,0,1,3,4.82ZM25.53,1.2c0,.11-.07.22-.1.33l-.05.15c0,.14-.09.27-.13.4l0,.07c-.06.15-.11.3-.16.45s0,.09-.05.13-.07.21-.11.31l-.06.16-.09.25a1.11,1.11,0,0,0-.07.16c0,.08-.05.15-.08.22L24.55,4c0,.07-.06.14-.08.2l-.06.14a2,2,0,0,1-.11.26v0l0,0L24,4.36l-.13-.1-.23-.19-.17-.14-.26-.22L23,3.57l-.39-.33-.07-.06-.48-.43-.16-.13-.36-.33-.17-.16L21,1.78l-.16-.15-.47-.45,0-.06h5.2ZM17,1.15l-.49.48-.16.15L16,2.13l-.16.15-.39.35-.12.12-1,.84-.12.09L13.88,4l-.12.1-.29.23-.08.07-.29.24,0,0h0L13,4.31l0-.08a2.6,2.6,0,0,1-.1-.25l-.06-.14-.09-.23-.06-.16-.09-.25L12.46,3c0-.1-.08-.2-.11-.3l0-.14-.16-.45a.19.19,0,0,1,0-.08c0-.12-.09-.26-.13-.39s0-.1-.05-.15-.07-.22-.1-.33l0-.08H17ZM4.42,9.58l.1,3.26h0l-.12,0-.09,0-.18-.07-.06,0-.3-.12h0l-.3-.14-.09,0L3,12.2l-.11,0L2.54,12l-.11-.06L2,11.67h0l-.56-.31h0a31,31,0,0,1,3-4.82ZM1.6,12.74l.34.18L2.1,13l.42.2,0,0,.77.36.06,0,.26.11.07,0,.21.08.07,0,.14.05L2.29,16.55,1.08,18.27v-5.8l.32.17ZM11.83,38.81c0-.11.07-.23.11-.34s0-.09,0-.14l.15-.43a.5.5,0,0,1,0-.13l.12-.35c0-.07.05-.13.07-.19l.09-.25.07-.19a2,2,0,0,0,.08-.22,1.34,1.34,0,0,0,.07-.18l.09-.22.06-.14a2.49,2.49,0,0,1,.11-.29v0l.13-.3h0l0,0,.25.2.15.13.2.16.2.16.22.18.21.18.29.25.24.21.38.33.21.19.3.27.22.2.32.3.2.19.42.41.09.09H11.81A.19.19,0,0,0,11.83,38.81Zm8.6,0,.43-.41.19-.18.33-.31.21-.19.31-.29.2-.17.41-.37.2-.16.31-.27.2-.17.23-.19.19-.15.21-.17.15-.13.25-.2,0,0h0c0,.09.08.19.12.3v0l.12.29.06.14.09.22.06.17.09.24a1.34,1.34,0,0,0,.07.18l.09.26.06.17.15.42s0,0,0,0l.15.47.05.14.1.34,0,.07h-5.2ZM32.85,27.16h0l.11,0,.1,0,.15.06.09,0,.26.11.11,0,.22.1.13.06.24.11.14.07.3.15.13.07.46.24h0l.56.3h0A26.33,26.33,0,0,1,33,33.39Z"/></svg>
