<svg id="Слой_1" xmlns="http://www.w3.org/2000/svg" viewBox="0 0 23.58 40.98"><defs><style>.cls-1{fill:#b6b6b6;}</style></defs><title>Маркиз</title><path class="cls-1" d="M21.31,11.2A41.13,41.13,0,0,0,12,.21L11.79,0l-.91.82a40.64,40.64,0,0,0-8,9.42A19.72,19.72,0,0,0,.76,26a24.41,24.41,0,0,0,4.15,7.84A36.1,36.1,0,0,0,9.65,39c.62.6,1.25,1.19,1.85,1.8l.1.11h.15l.07.11.06-.09.07,0,.85-.82c.49-.47,1-1,1.49-1.41a34.92,34.92,0,0,0,7.34-9.47A20.2,20.2,0,0,0,21.31,11.2Zm.58,15.07-.89,2,.19-2.42Zm-.5-10.22.73-.38a15.88,15.88,0,0,1,.47,2.72Zm0,8.86,1.19-2.28a15.68,15.68,0,0,1-.48,2.69ZM18.32,32.8l-1.54,2-.33-1ZM2.64,28.18l0,0c-.27-.62-.54-1.25-.87-1.89,0,0,0,0,.09-.06a5.17,5.17,0,0,0,.6-.33ZM5.21,8.41,6.88,6.15l.38,1ZM16.38,7.16l.38-1L18.43,8.4ZM11.79,30.69l-1.48-1.61L7.88,26.44a1.54,1.54,0,0,1-.32-.59c-.49-1.69-1-3.4-1.43-5.1a1.1,1.1,0,0,1,0-.51c.47-1.72,1-3.43,1.46-5.17a.87.87,0,0,1,.12-.29L11.17,11l.65-.72L14,12.6c.61.67,1.22,1.34,1.82,2a1.23,1.23,0,0,1,.27.47q.75,2.6,1.47,5.19a.85.85,0,0,1,0,.42Q16.8,23.34,16.05,26a.82.82,0,0,1-.14.3l-3.79,4.11-.3.33ZM6.57,15.26,5.42,19.32,3.58,16.14ZM5.42,21.67l1.14,4.06-3-.92Zm7.13-12L15.4,8.12l.42,5.14Zm5.67,9.63-1.15-4,3,.88Zm1.86,5.5-3,.92,1.13-4.05Zm-1.42-4.24a.52.52,0,0,1,0-.11c.62-1.1,1.26-2.2,1.9-3.29l.2-.34.09.17c.61,1.2,1.21,2.36,1.8,3.51l-1.72,3.32-.15.3-.14-.24C20,22.79,19.31,21.69,18.66,20.57Zm1.26-5.45c-1.06-.31-2.1-.61-3.08-.86q-.25-3-.49-6l.13.08,2.92,1.78a.6.6,0,0,1,.16.18c.2,1.46.39,2.93.58,4.4l.07.53ZM7.82,13.27l.41-5.16,2.86,1.57ZM4.26,10.09C5.12,9.54,6,9,6.85,8.49l.44-.26c0,.19,0,.36,0,.54L7.1,10.61c-.09,1.16-.19,2.33-.28,3.5,0,.09,0,.12-.05.13-.83.23-1.66.48-2.48.72l-.86.24.32-2.46c.1-.78.2-1.57.33-2.35A.54.54,0,0,1,4.26,10.09Zm-1.52,7,.16-.31,1.19,2L5,20.43a.19.19,0,0,1,0,.07c-.64,1.11-1.29,2.22-2,3.36l-.17.27-.35-.68c-.49-.94-1-1.89-1.46-2.84,0,0,0-.09,0-.09H1C1.58,19.41,2.14,18.29,2.74,17.13Zm1.13,8.75c.94.29,1.88.57,2.81.87,0,0,.09.08.1.05.15,1.82.28,3.65.41,5.48l0,.5-.45-.25c-.9-.48-1.74-.93-2.56-1.44a1.17,1.17,0,0,1-.44-.75c-.14-1.23-.23-2.48-.32-3.7l-.07-.9Zm7.21,5.41L8.17,32.85l-.38-5.13Zm4.77-3.57-.38,5.13-2.91-1.56Zm.56,5.06.22-3.13c.07-.92.13-1.85.22-2.77,0,0,0-.09,0-.09h0l3.14-1,.29-.08-.08,1c-.09,1.16-.18,2.32-.28,3.48a1.29,1.29,0,0,1-.7,1.07Zm4.73-17.65-.38-2.94a18.89,18.89,0,0,1,1.1,2.57ZM13.91,3.24l0,0,2.05,2,0,.15c-.11.26-.21.53-.32.81Zm1.26,3.94-1.8,1c-.49.27-1,.54-1.47.79,0,0-.09,0-.08,0L8.74,7.32l-.26-.15,3.34-5.63ZM7.92,6.29c-.12-.33-.23-.63-.31-.93C8.32,4.63,9,3.9,9.76,3.18ZM1.79,14.76a15.22,15.22,0,0,1,1.09-2.52l-.39,2.89Zm-.72,3.59a15.92,15.92,0,0,1,.46-2.67l.71.37ZM2.23,24.9l-.7.4a13.66,13.66,0,0,1-.44-2.62Zm5,8.92-.33,1-1.54-2Zm2.4,3.77c-.67-.66-1.34-1.33-2-2,.08-.29.17-.58.28-.88Zm.47-4.7c.55-.3,1.11-.6,1.67-.88l.12,0,3,1.59.41.22-3.41,5.74L8.4,33.78Zm5.7,1.82c.11.32.21.61.31.88l-2,2Z" transform="translate(-0.01 0)"/></svg>
