<svg id="Слой_1" xmlns="http://www.w3.org/2000/svg" viewBox="0 0 25.98 40"><defs><style>.cls-1{fill:#b6b6b6;}</style></defs><title>Овал</title><path class="cls-1" d="M13,40h0a9.39,9.39,0,0,0,5.5-1.9l0,0,.05,0a15.62,15.62,0,0,0,4.1-4.78l0,0a.31.31,0,0,0,.06-.13,24.06,24.06,0,0,0,2.27-5.7h0A29.29,29.29,0,0,0,26,20a29.29,29.29,0,0,0-.93-7.4h0a23.89,23.89,0,0,0-2.27-5.7.31.31,0,0,0-.06-.13l0,0A15.62,15.62,0,0,0,18.6,2l-.05,0,0,0A9.39,9.39,0,0,0,13,0h0A9.36,9.36,0,0,0,7.47,1.9l0,0s0,0,0,0A15.66,15.66,0,0,0,3.27,6.74v0a.33.33,0,0,0-.07.13A23.65,23.65,0,0,0,1,12.47a.27.27,0,0,0,0,.12A29.31,29.31,0,0,0,0,20H0a29.31,29.31,0,0,0,.93,7.41.2.2,0,0,0,0,.11,23.56,23.56,0,0,0,2.23,5.59.33.33,0,0,0,.07.13v0A15.66,15.66,0,0,0,7.38,38s0,0,0,0l0,0A9.41,9.41,0,0,0,13,40ZM8.22,37.6l1.91-3.05,2.17,4.56A8.69,8.69,0,0,1,8.22,37.6Zm-6.39-10,2.05-1.13-.56,5.13A22.82,22.82,0,0,1,1.83,27.58ZM3.32,8.42l.56,5.13-2-1.13A22.82,22.82,0,0,1,3.32,8.42Zm9-7.53L10.13,5.45,8.22,2.4A8.58,8.58,0,0,1,12.3.89ZM17.76,2.4,15.85,5.45,13.67.89A8.76,8.76,0,0,1,17.76,2.4Zm6.39,10-2,1.13.56-5.13A24.54,24.54,0,0,1,24.15,12.42ZM22.66,31.58l-.56-5.13,2,1.13A24.54,24.54,0,0,1,22.66,31.58Zm-9,7.53,2.18-4.56,1.91,3.05A8.76,8.76,0,0,1,13.67,39.11ZM5.92,21.58l1.61,5.73L4.87,25.49Zm-1-7.07,2.66-1.82L5.92,18.42Zm15.19,3.91-1.62-5.73,2.67,1.82Zm1.05,7.07-2.67,1.82,1.62-5.73ZM8.61,28.06,6.34,20l2.27-8.06L13,8.35l4.37,3.59L19.63,20l-2.27,8.06L13,31.65Zm5.15,4.06,3-2.51-1.24,3.46ZM20.5,20l1.26-4.7L25.05,20l-3.29,4.7ZM13.76,7.88l1.81-1,1.24,3.46Zm1.48-1.75L13,7.31,10.73,6.13,13,1.41Zm-3,1.75L9.16,10.39l1.25-3.46ZM5.47,20,4.21,24.7.93,20l3.28-4.7Zm6.75,12.12-1.81,1L9.16,29.61Zm-1.49,1.75L13,32.69l2.25,1.18L13,38.59Zm7.34-5.28,3.19-2.16.67,6.16-5.51.59Zm4.14-3.06,2.9-4.15a29.13,29.13,0,0,1-.74,5.34Zm0-11.06,2.16-1.19a29.13,29.13,0,0,1,.74,5.34Zm-.95-.9-3.19-2.16L16.42,6.82l5.51.59ZM7.9,11.41,4.72,13.57,4.05,7.41l5.5-.59ZM3.77,14.47.87,18.62a28.29,28.29,0,0,1,.74-5.34Zm0,11.06L1.61,26.72a28.29,28.29,0,0,1-.74-5.34Zm.95.9L7.9,28.59l1.65,4.59-5.5-.59ZM18.44,37.1,16.52,34l5.08-.54A14.36,14.36,0,0,1,18.44,37.1ZM21.6,6.51,16.52,6,18.44,2.9A14.36,14.36,0,0,1,21.6,6.51ZM7.54,2.9,9.46,6l-5.08.54A14.17,14.17,0,0,1,7.54,2.9ZM4.38,33.49,9.46,34,7.54,37.1A14.17,14.17,0,0,1,4.38,33.49Z"/></svg>
