<svg id="Слой_1" xmlns="http://www.w3.org/2000/svg" viewBox="0 0 40.5 40.51"><defs><style>.cls-1{fill:#b6b6b6;}</style></defs><title>Принцесса</title><path class="cls-1" d="M33.45,0Q17.28,0,1.1,0A1,1,0,0,0,.25.25,1.18,1.18,0,0,0,0,1.09c0,13.15,0,26,0,38.17,0,.93.42,1.11,1.15,1.11l30.12.1,8,0h.14c.43,0,.68,0,.86-.19s.19-.47.19-1V0ZM.86,15.66V2.07L1,2.35c.55,1,1.1,2.09,1.64,3.14a.54.54,0,0,1,0,.3Q1.75,10.73.86,15.66ZM37.91,6.07a1.76,1.76,0,0,1,.17-1c.43-.88.92-1.76,1.38-2.62l.21-.38V15.37c-.06-.28-.11-.57-.16-.86L39.1,12.4C38.7,10.29,38.29,8.19,37.91,6.07Zm-3.19.53a.77.77,0,0,1,.09-.22c.55-.1,1.13-.16,1.73-.23l.35,0L35.27,16.16Q35,11.39,34.72,6.6ZM37,10.65V29.92c0-.22-.08-.45-.11-.68-.47-2.83-1-5.77-1.35-8.66a7.21,7.21,0,0,1,.22-2.28c0-.29.11-.59.16-.88.34-2.21.7-4.42,1.06-6.63ZM33.4,33.84l.73,3.38L22.81,35.07ZM4.78,21.79l-.09.51Q4.1,26,3.5,29.62V10c0,.33.11.66.16,1,.13.82.25,1.64.38,2.47.27,1.82.56,3.71.89,5.55A8,8,0,0,1,4.78,21.79ZM11.46,3.62H30l-3.56.61-1,.16c-.71.11-1.45.23-2.17.39a11.52,11.52,0,0,1-4.83,0c-1.88-.33-3.77-.64-5.65-1Zm3.48,1.91c-2.44.15-4.88.3-7.32.47C7.15,6,7,5.94,7,5.52s-.19-1-.3-1.5c0-.11,0-.21-.07-.32L17.21,5.39Zm-8,3.19L7.07,7h0c0-.07,0-.15,0-.24l1,0c.81,0,1.64-.1,2.46-.18a165.26,165.26,0,0,1,23.08-.18c.32,0,.38.08.4.42.06,1.33.14,2.65.22,4,.16,2.64.32,5.38.41,8.07a25.74,25.74,0,0,1-.25,3.72c0,.4-.09.8-.13,1.2-.14,1.4-.29,2.8-.44,4.21s-.33,3.07-.48,4.61c0,.44-.15.56-.59.6l-4.52.53c-2.43.28-4.94.58-7.41.82A13.37,13.37,0,0,1,18,34.38l-.66-.08-5-.58c-1.69-.2-3.37-.4-5.06-.58-.46,0-.56-.15-.58-.59-.09-1.49-.19-3-.28-4.48-.16-2.39-.32-4.86-.42-7.29a20.78,20.78,0,0,1,.19-3.25c0-.45.1-.9.13-1.34Q6.6,12.45,6.93,8.72Zm-1.19,5-.07.88c-.07.84-.14,1.69-.22,2.53v.08L3.65,5.9,4,6c.77.22,1.5.44,2.2.67A.84.84,0,0,1,6.3,7Q6,10.36,5.74,13.68Zm-.31,11c.06.91.11,1.82.17,2.72.11,1.8.22,3.59.35,5.38,0,.35,0,.48-.32.61-.57.28-1.13.58-1.75.91l-.41.21L5.33,23.4C5.37,23.83,5.4,24.26,5.43,24.68Zm1.26,9.26A.67.67,0,0,1,7,33.87c2,.22,4,.45,6,.69l4.46.52L5.93,37,6,36.51C6.25,35.62,6.46,34.78,6.69,33.94Zm4.74,3c2.85-.46,5.7-.92,8.55-1.36a2.36,2.36,0,0,1,.8,0l8.67,1.64H9.91ZM34.69,26.81l.18-1.72c.06-.64.13-1.29.22-1.94l1.83,11.31-.47-.21c-.79-.34-1.53-.67-2.23-1a.84.84,0,0,1-.14-.49C34.27,30.76,34.48,28.79,34.69,26.81ZM34.47,3.89c-.21.61-.39,1.14-.58,1.63a.29.29,0,0,1-.21.08c-3-.09-6.08-.2-9.1-.3l10-1.69Zm4.94,17.6-.07.36c-.44,2.54-.9,5.07-1.36,7.6l-.18.94V9.83l.39,2c.48,2.45,1,5,1.38,7.48A6.74,6.74,0,0,1,39.41,21.49ZM10.13,2.73,14.28,2c1.9-.35,3.8-.71,5.71-1a4,4,0,0,1,1.38,0h0l8.68,1.64.88.17ZM15.29,1C12.46,1.49,9.53,2,6.65,2.55a2.06,2.06,0,0,1-1.09-.21c-1-.42-2-.88-3-1.32L2.17.83H15.92ZM.87,24.77l1,5.77c.19,1.1.39,2.21.59,3.3a2.57,2.57,0,0,1-.27,1.92c-.23.37-.44.75-.65,1.12s-.46.82-.71,1.23ZM2.66,10.23V30.07C2.08,26.8,1.52,23.54,1,20.27a1.83,1.83,0,0,1,0-.52Q1.8,15,2.66,10.23ZM15.78,39.55H2a1.71,1.71,0,0,0,.23-.13,7.83,7.83,0,0,1,6.59-1c2,.46,4.05.75,6,1Zm15-1.54-1.41.22-1.71.27c-2,.31-4.16.64-6.24.94a5.59,5.59,0,0,1-1.6-.06L11.13,38Zm4.23.24c1.08.45,2.16.93,3.24,1.4h-13l9.3-1.43A1,1,0,0,1,35,38.25Zm2.86-3.73c.55-3,1.13-6.25,1.77-9.48V38.32L39.46,38c-.52-.95-1-1.9-1.54-2.86A1.07,1.07,0,0,1,37.86,34.52Zm.23-31.18-.27.49a6.07,6.07,0,0,0-.26.57c-.15.35-.33.76-.54.85a6.49,6.49,0,0,1-1.8.32l-.53,0,.06-.18c.25-.71.47-1.35.7-2a.17.17,0,0,1,.06-.06l3.4-1.84.2-.11ZM25.16.82H38.57C37.51,1.4,36.41,2,35.31,2.56a1,1,0,0,1-.55.09Zm-19,4.41a4.36,4.36,0,0,0,.09.6L5.79,5.7C5,5.44,4.15,5.21,3.36,5a.59.59,0,0,1-.23-.24C2.54,3.6,2,2.49,1.4,1.37l.44.21a13.69,13.69,0,0,0,2.06.84A2.72,2.72,0,0,1,6.15,5.23ZM1.72,38.32c.49-.93,1-1.89,1.57-2.78A1.88,1.88,0,0,1,4.11,35l.47-.22L5.7,34.2l.12-.06,0,.07a8.33,8.33,0,0,0-.23,1.1A2.87,2.87,0,0,1,3.43,38a11,11,0,0,0-1.74.81L1.38,39Zm32.6-3.85-.08-.37.14.06,2.71,1.22a.25.25,0,0,1,.07.09c.64,1.15,1.28,2.31,1.91,3.47l.15.27L39,39.09l-4-1.73s-.06,0-.06-.06C34.73,36.38,34.53,35.47,34.32,34.47Z" transform="translate(0 0.01)"/></svg>
