<svg id="Слой_1" data-name="Слой 1" xmlns="http://www.w3.org/2000/svg" viewBox="0 0 38.07 40.75"><defs><style>.cls-1{fill:#b6b6b6;}</style></defs><title>Радиант</title><path class="cls-1" d="M549,318.75a1.53,1.53,0,0,0-.4-1c-1-1-2-2.08-3-3.12l-3.34-3.5a1.55,1.55,0,0,0-1.23-.52h0q-11,0-21.93,0h0a1.58,1.58,0,0,0-1.19.5q-3.2,3.24-6.42,6.46a1.76,1.76,0,0,0-.55,1.34q0,4.6,0,9.21v5.16c0,3.19,0,6.38,0,9.57a1.94,1.94,0,0,0,.48,1.23c1.86,2,3.86,4.12,6.49,6.84a1.42,1.42,0,0,0,.94.41l11.8,0H541.2a1.43,1.43,0,0,0,.94-.42q3.27-3.6,6.51-7.24a1.38,1.38,0,0,0,.32-.86Q549,330.8,549,318.75Zm-34,22.82c0,.37,0,.43-.4.51-.7.16-1.4.35-2.12.56l-.43.12V319.11l.31.1,2.56.9a.29.29,0,0,1,.07.14.37.37,0,0,1,0,.15v4.35C514.92,330.36,514.91,336,514.93,341.57Zm28.81.65-2.88,3.13-1.36-4.56Zm-23.41-1.45-1.18,4.58-2.68-2.84Zm19-19.54,1.5-4.84,2.89,3.13Zm0,18.4c-.12,0-.15-.06-.13-.1l.08-.54c.3-2,.61-4.11,1-6.19l3.52,8.32-2.35-.78Zm-11.2,2.27-7.94,3.59,1.31-5.09Zm3.47-21.7,8.15-4-1.6,5.13Zm12.59,19.14c-1.16-2.73-2.32-5.46-3.46-8.2a.68.68,0,0,1,0-.41c1.09-2.69,2.2-5.37,3.31-8.06l.05-.13Zm-5.11-16.87a.65.65,0,0,1,.17-.09c1.07-.4,2.13-.81,3.19-1.23l1.22-.47L540.25,329c-.08-.45-.17-.91-.25-1.37l-.3-1.75c-.19-1.09-.38-2.18-.58-3.26C539.09,322.51,539.11,322.47,539.11,322.47Zm-.91,16.78c0,.17,0,.18-.22.22l-4.05.89-3.6.79a1.33,1.33,0,0,1-.56,0l-3.81-.85-4.09-.92c-.18,0-.18,0-.2-.17-.22-2-.46-4-.69-6l-.25-2.07v-.28l.58-3.79c.22-1.47.45-2.94.66-4.42a.32.32,0,0,1,0-.13h0a.39.39,0,0,1,.11,0l2.52-.49c1.66-.33,3.37-.67,5.06-.93a5.06,5.06,0,0,1,1.73.17l.65.13,2.67.47c1,.19,2.07.38,3.11.55.17,0,.19.05.22.22.14.85.3,1.7.45,2.55.31,1.77.63,3.54.91,5.32a3.93,3.93,0,0,1-.1,1.25c0,.15-.06.31-.08.47-.13.94-.27,1.88-.41,2.82C538.61,336.43,538.4,337.84,538.2,339.25ZM538,315.93c-2.59,1.26-5.19,2.53-7.79,3.77a.64.64,0,0,1-.44,0c-2.54-1.24-5.07-2.51-7.59-3.78l-.22-.11h16.21Zm-11.63,4.66-2.25.43-2.08.39c-.07,0-.16,0-.15,0-.32-1.21-.64-2.43-1-3.64l-.37-1.43,7.74,3.88Zm-9.58.2.57.2c1.17.42,2.34.84,3.49,1.28l.09.08c-.28,2-.63,4.26-1.06,6.65l-3.53-8.36Zm-.77,1.8,2,4.74c.47,1.11.94,2.22,1.39,3.34a.77.77,0,0,1,0,.51q-1.65,4.15-3.32,8.31l-.12.28Zm4.58,16.88c-1.25.59-2.51,1.16-3.78,1.72l-.28.13,3.36-8.35.38,3.2c.12,1,.24,2.08.35,3.12A.38.38,0,0,1,520.58,339.47Zm1.65,6.27,7.29-3.27a1,1,0,0,1,.6,0c2.53,1.08,5.06,2.19,7.59,3.29l.56.24H521.74Zm10.38-4,5.63-1.25.07,0h0l1.11,3.79.35,1.18-8.08-3.5Zm-16.26-22.23,3.12-3,1.22,4.54Zm29,22.06a1.66,1.66,0,0,1,0-.77,4.26,4.26,0,0,0,0-.5l0-3.89q-.09-7.77-.15-15.55c0-.18,0-.33,0-.45s0-.25,0-.25h0a1.51,1.51,0,0,1,.3-.11l.42-.15c.58-.22,1.17-.42,1.77-.63l.32-.12v23.36l-.06,0-1.25-.44a3.37,3.37,0,0,0-.48-.15A1.74,1.74,0,0,1,545.31,341.57Zm2-23.34c-.86.3-1.68.6-2.52.83-1.18-1.25-2.35-2.52-3.51-3.79a.23.23,0,0,1,0-.11c.18-.85.36-1.7.57-2.62l.05-.24,5.62,5.86ZM540.83,312c-.21.91-.41,1.81-.62,2.69l-.12,0h-3.9l-15.81,0c-.31,0-.31,0-.37-.28-.17-.76-.37-1.5-.58-2.27l-.14-.49h21.6ZM519,315.21c-1.23,1.28-2.48,2.55-3.76,3.85-.86-.27-1.73-.56-2.61-.85l-.16,0,5.89-5.77,0,.11c.23.84.47,1.72.68,2.57A.31.31,0,0,1,519,315.21Zm-6.08,28.39c.75-.21,1.5-.42,2.26-.6a.58.58,0,0,1,.33.07c.59.6,1.17,1.22,1.76,1.83s.89,1,1.34,1.41a.57.57,0,0,1,.18.3l-.2.11h.21a.89.89,0,0,1,0,.14c-.19.81-.37,1.61-.55,2.47l-.08.35-5.65-6Zm6.25,6.37c.22-1,.43-2,.62-2.87l.15-.09h4.42c5.17,0,10.34,0,15.51,0,.32,0,.38,0,.44.36.11.65.25,1.28.4,1.92.06.3.13.59.19.89l0,.14H519.1ZM542,345.62a23.71,23.71,0,0,0,2-2.12c.22-.26.45-.51.68-.77.09-.09.13-.13.19-.13a.24.24,0,0,1,.13,0l2.06.74.34.12-5.54,6.16,0-.12a12.35,12.35,0,0,0-.41-1.77A1.78,1.78,0,0,1,542,345.62Z" transform="translate(-510.91 -310.63)"/></svg>