<svg id="Слой_1" xmlns="http://www.w3.org/2000/svg" viewBox="0 0 41.08 40"><defs><style>.cls-1{fill:#b6b6b6;}</style></defs><title>Сердце</title><path class="cls-1" d="M40.8,9.63a13,13,0,0,0-5.65-8.49A11,11,0,0,0,30.4,0a9.83,9.83,0,0,0-2.93.45h0a14.15,14.15,0,0,0-6.93,5.4A14.17,14.17,0,0,0,13.62.46h0A9.76,9.76,0,0,0,10.69,0a11.12,11.12,0,0,0-4.8,1.16A13,13,0,0,0,.29,9.63a15.62,15.62,0,0,0-.19,4.8.55.55,0,0,0,0,.57.49.49,0,0,0,.12.13c.65,4.64,3.1,9.79,7.32,15.38,2.34,3.09,12.33,9.15,12.75,9.41h0l.09,0,0,0h0l.13,0h0l.13,0h0l0,0,.09,0h0c.42-.26,10.4-6.32,12.74-9.41,4.23-5.59,6.67-10.74,7.33-15.38A.69.69,0,0,0,41,15a.55.55,0,0,0,0-.57A16.27,16.27,0,0,0,40.8,9.63Zm-.86,4.14-2.75-1.53L39,7.61a12.53,12.53,0,0,1,.68,2.24A14.93,14.93,0,0,1,39.94,13.77Zm-.69,3.84-1.62-3.86L39.81,15A19,19,0,0,1,39.25,17.61Zm-13,17.5-1.14-1,4.76-1.62C28.73,33.35,27.47,34.26,26.22,35.11Zm-15-2.62L16,34.11l-1.15,1C13.62,34.26,12.35,33.35,11.25,32.49ZM1.27,15l2.18-1.21L1.83,17.61A20.58,20.58,0,0,1,1.27,15Zm19.82-7.4,2,.45-2,1.47ZM20,9.48,18,8l2-.45ZM20.22,11l0,0,0,0h0a.59.59,0,0,0,.22,0,.54.54,0,0,0,.22,0h0l0,0,0,0,3.68-2.67,6,1.51v8L26.34,24.4l-5.8,4.75-5.8-4.75-4.17-6.51v-8l6-1.51Zm16,.69L31.62,9.1V3.89l6.67,2.63ZM23.76,32.78l-2.43-2.85,4.37-3.58Zm-6.43,0-1.95-6.43,4.38,3.58ZM9.47,16.7l-4-4.08,4-2.25Zm.64,2.52L13.16,24,8.46,23Zm3.79,6L16.25,33l-7-2.4-.89-6.49Zm6.64,5.45L23.31,34,20.54,38.4,17.77,34Zm6.64-5.45,5.57-1.12-.89,6.49-7,2.4ZM27.92,24l3-4.76L32.62,23Zm3.7-13.61,4,2.25-4,4.08Zm-1.1-6.23V8.71L25.73,7.5ZM10.57,8.71V4.14L15.35,7.5Zm-1.1.39L4.86,11.7,2.79,6.52,9.47,3.89Zm-4.7,4.37,4.59,4.71L7.45,22.59,2.44,19ZM17,34.74l1.85,3c-.85-.54-1.9-1.22-3-2Zm7.15,0,1.16,1c-1.11.75-2.16,1.43-3,2Zm9.51-12.15-1.91-4.41,4.6-4.71L38.65,19Zm4-17.5L32.26,3,34,1.83c.23.09.45.18.68.29A11.12,11.12,0,0,1,37.67,5.09Zm-5.05-3.7-1.57,1-2-1.21a8.48,8.48,0,0,1,1.35-.11A9.44,9.44,0,0,1,32.62,1.39Zm-5.08.21,2.51,1.52-5.74,4L21.44,6.5A13.53,13.53,0,0,1,27.54,1.6Zm-7.9,4.9-2.86.64L11,3.12,13.54,1.6A13.58,13.58,0,0,1,19.64,6.5ZM12,1.22,10,2.43l-1.57-1a9.59,9.59,0,0,1,2.23-.28A8.36,8.36,0,0,1,12,1.22ZM6.4,2.14c.24-.11.48-.22.72-.31L8.82,3,3.41,5.08A11.36,11.36,0,0,1,6.4,2.14Zm-5,7.74A12.87,12.87,0,0,1,2,7.61l1.85,4.63L1.15,13.77A14.7,14.7,0,0,1,1.36,9.88ZM2.93,20.72l4.25,3,.74,5.45A42.91,42.91,0,0,1,2.93,20.72Zm30.23,8.49.75-5.45,4.24-3A42.42,42.42,0,0,1,33.16,29.21Z"/></svg>
