<svg xmlns="http://www.w3.org/2000/svg" viewBox="0 0 31 31"><defs><style>.cls-1{fill:#666665;}.cls-2{fill:#b6b6b6;}</style></defs><title>Чистота 7</title><g id="Слой_2" data-name="Слой 2"><path class="cls-1" d="M11.88,20.52A26.62,26.62,0,0,0,15,21.81a6.41,6.41,0,0,0,1.68.39c1.37.05,2-1,2.63-1.94"/><path class="cls-1" d="M8,9.39c1.15,1.29,2.32,2.49,3.49,3.59a15.29,15.29,0,0,0,2,1.66,4.92,4.92,0,0,0,4.48.43"/><path class="cls-1" d="M14.9,10.83A28.32,28.32,0,0,0,18,12.11a6.32,6.32,0,0,0,1.68.39c1.37.05,2-1,2.63-1.94"/><path class="cls-1" d="M19.75,5.67a12.71,12.71,0,0,0,1.47,1.47,1.67,1.67,0,0,0,.79.44c.64.07.95-1.09,1.24-2.21"/><path class="cls-1" d="M24.52,17.4A11.94,11.94,0,0,0,26,18.87a1.67,1.67,0,0,0,.79.44c.64.06.95-1.09,1.24-2.21"/><path class="cls-1" d="M13,25.48A10.83,10.83,0,0,0,14.44,27a1.76,1.76,0,0,0,.79.44c.64.06.95-1.09,1.23-2.22"/><path class="cls-1" d="M4.36,22.88a12.71,12.71,0,0,0,1.47,1.47,1.67,1.67,0,0,0,.79.44c.64.06,1-1.09,1.23-2.21"/></g><g id="Слой_1" data-name="Слой 1"><path class="cls-2" d="M15.5,0A15.5,15.5,0,1,0,31,15.5,15.51,15.51,0,0,0,15.5,0Zm6.88,12,.24.53c.07.18.14.35.2.52l.09.25a4.47,4.47,0,0,1,.31,2.08l0,.1,0,.1a4.43,4.43,0,0,1-.32,2.1,1.07,1.07,0,0,1-.07.19c-.06.19-.14.38-.22.58s-.15.36-.23.52l-.1.22A4.32,4.32,0,0,1,21,20.91l-.14.14a4.33,4.33,0,0,1-1.67,1.24l-.29.14-.45.19-.6.24-.18.07a4.55,4.55,0,0,1-2.1.31l-.1,0-.1,0a4.39,4.39,0,0,1-2.07-.3L13,22.82l-.42-.16-.68-.3-.09,0A4.48,4.48,0,0,1,10.07,21l-.14-.14a4.51,4.51,0,0,1-1.26-1.7L8.57,19c-.08-.17-.15-.35-.23-.53l-.21-.53c0-.07-.05-.16-.08-.24a4.22,4.22,0,0,1-.31-2.08l0-.1,0-.1a4.3,4.3,0,0,1,.31-2.1c0-.07,0-.14.08-.2s.14-.37.21-.56L8.58,12l.09-.2a4.38,4.38,0,0,1,1.27-1.71l.14-.14a4.53,4.53,0,0,1,1.74-1.28l0,0c.23-.11.48-.22.74-.32l.32-.13.41-.15a4.36,4.36,0,0,1,2-.29l.1,0,.1,0a4.48,4.48,0,0,1,2.11.32l.15.05c.2.07.41.16.62.25l.48.21.25.11A4.38,4.38,0,0,1,20.88,10l.14.14a4.31,4.31,0,0,1,1.26,1.7A2.14,2.14,0,0,1,22.38,12ZM19.15,7.59c-.54-.24-1.14-.47-1.77-.69.6-.14,1.21-.26,1.83-.39.34.53.69,1,1,1.58C19.86,7.91,19.5,7.74,19.15,7.59ZM12,7.53c-.39.16-.8.35-1.21.55.33-.53.67-1,1-1.58l1.83.4C13,7.1,12.46,7.3,12,7.53ZM7.56,11.85c-.24.54-.47,1.13-.68,1.75-.14-.6-.27-1.22-.39-1.83.52-.35,1-.69,1.58-1C7.88,11.12,7.71,11.49,7.56,11.85Zm0,7.3c.15.36.32.73.51,1.1-.53-.33-1.06-.68-1.59-1,.13-.61.26-1.23.4-1.84A18.76,18.76,0,0,0,7.56,19.15Zm4.23,4.25a19.12,19.12,0,0,0,1.79.7l-1.83.39c-.35-.52-.69-1-1-1.58C11.09,23.09,11.44,23.25,11.79,23.4Zm7,.17h0l.59-.26.84-.4q-.49.8-1,1.59l-1.84-.4C17.86,23.93,18.33,23.76,18.78,23.57Zm4.61-4.41a17,17,0,0,0,.68-1.76c.14.6.27,1.22.39,1.83-.52.34-1,.68-1.57,1C23.07,19.87,23.24,19.51,23.39,19.16Zm0-7.32c-.15-.35-.32-.72-.5-1.09.53.34,1.06.68,1.58,1-.12.61-.25,1.23-.39,1.84C23.86,13,23.64,12.39,23.39,11.84ZM22,9c-.52-.91-1.09-1.83-1.68-2.72,2-.37,3.86-.64,5.22-.81-.17,1.36-.44,3.23-.82,5.21C23.8,10.12,22.88,9.55,22,9ZM15.49,6.33c-1-.28-2.08-.52-3.12-.74,1.14-1.66,2.27-3.18,3.11-4.25.84,1.08,2,2.6,3.11,4.26C17.55,5.81,16.5,6.06,15.49,6.33ZM9,9c-.91.52-1.83,1.1-2.72,1.68-.37-2-.64-3.85-.81-5.21,1.36.16,3.23.44,5.21.81C10.1,7.18,9.53,8.09,9,9ZM6.31,15.49c-.28,1-.52,2.08-.74,3.12-1.66-1.14-3.18-2.27-4.26-3.11,1.08-.84,2.6-2,4.27-3.11C5.79,13.42,6,14.48,6.31,15.49ZM9,22c.53.91,1.1,1.83,1.68,2.72-2,.37-3.86.64-5.22.81.17-1.36.45-3.23.82-5.21C7.16,20.88,8.08,21.45,9,22Zm6.48,2.69c1,.28,2.08.52,3.11.74-1.13,1.66-2.26,3.18-3.1,4.25-.85-1.08-2-2.59-3.11-4.26C13.4,25.19,14.46,24.94,15.47,24.67ZM22,22c.91-.52,1.83-1.09,2.71-1.67.37,2,.65,3.85.81,5.21-1.35-.16-3.22-.44-5.2-.81C20.86,23.82,21.43,22.9,22,22Zm3.42-3.37c-.22-1-.46-2.09-.73-3.1.27-1,.52-2.08.74-3.12,1.66,1.14,3.17,2.27,4.25,3.11C28.56,16.34,27,17.47,25.38,18.61Zm.67-7,3-1.13a14.56,14.56,0,0,1,.86,4C29.08,13.8,27.67,12.74,26.05,11.62Zm-.33-.94c.35-1.89.59-3.58.73-4.66a14.7,14.7,0,0,1,2.26,3.54ZM20,5.33,21.2,2.17A15,15,0,0,1,25,4.55C23.83,4.7,22,5,20,5.33Zm-.81-.69c-1-1.49-2-2.77-2.64-3.59a14.37,14.37,0,0,1,3.74.77ZM11.57,5l-1-3.08a14.35,14.35,0,0,1,3.89-.84C13.75,1.94,12.69,3.35,11.57,5Zm-1,.28C8.76,4.91,7.1,4.68,6,4.54A14.57,14.57,0,0,1,9.61,2.26ZM5.22,10.51,2.47,9.17A15.26,15.26,0,0,1,4.53,6C4.67,7.09,4.89,8.7,5.22,10.51Zm-.19,1c-1.65,1.13-3.08,2.21-4,2.9a14.77,14.77,0,0,1,1-4.35Zm-.22,7.78-3,.79a14.27,14.27,0,0,1-.71-3.53C1.91,17.23,3.25,18.23,4.81,19.31Zm.44.92c-.35,1.9-.59,3.61-.73,4.71A14.37,14.37,0,0,1,2.11,21Zm5.22,5.53L9.11,28.49a14.31,14.31,0,0,1-3.09-2C7.06,26.31,8.67,26.09,10.47,25.76Zm1,.17c1.15,1.67,2.23,3.12,2.93,4a14.5,14.5,0,0,1-4.42-1Zm7.81.22,1.17,3a14.41,14.41,0,0,1-4,.85C17.19,29.09,18.22,27.72,19.31,26.15Zm.91-.42c1.92.35,3.64.6,4.74.74a14.76,14.76,0,0,1-3.55,2.26Zm5.46-5.55,2.85,1.63A14.55,14.55,0,0,1,26.43,25C26.29,23.89,26,22.13,25.68,20.18Zm.48-.88c1.58-1.09,2.94-2.11,3.79-2.77a14.37,14.37,0,0,1-1,4.36Z"/></g></svg>