<svg version="1.1" id="Слой_1" xmlns="http://www.w3.org/2000/svg" xmlns:xlink="http://www.w3.org/1999/xlink" x="0px" y="0px"
	 viewBox="0 0 21.3 21.3" style="enable-background:new 0 0 21.3 21.3;" xml:space="preserve">
<style type="text/css">
	.st0{fill:#7E6579;}
</style>
<title>Избранное</title>
<g>
	<path class="st0" d="M10.6,21.3C10.6,21.3,10.6,21.3,10.6,21.3c-0.2,0-0.4-0.1-0.5-0.3L1.2,9.3C0.4,8.3,0,7.1,0,5.8
		c0-2.9,2.1-5.4,4.9-5.7C6.3-0.1,7.8,0.2,9,1.1c0.7,0.6,1.3,1.3,1.7,2C11.6,1.3,13.5,0,15.6,0c1.5,0,2.9,0.5,3.9,1.6
		c1.1,1.1,1.8,2.6,1.8,4.2c0,0,0,0,0,0c0,1.3-0.4,2.5-1.2,3.5l-9,11.7C11,21.2,10.8,21.3,10.6,21.3z M5.6,1.3c-0.2,0-0.4,0-0.6,0
		C2.9,1.6,1.3,3.5,1.3,5.8c0,1,0.3,2,0.9,2.7l8.4,11l8.5-11C19.7,7.8,20,6.8,20,5.8c0-1.3-0.5-2.4-1.4-3.3c-0.8-0.8-1.9-1.2-3-1.2
		c-2.1,0-4,1.7-4.2,4c0,0.3-0.3,0.6-0.6,0.6h-0.2c-0.3,0-0.6-0.2-0.6-0.6C9.8,4,9.2,2.9,8.2,2.2C7.4,1.6,6.6,1.3,5.6,1.3z"/>
</g>
</svg>
