<svg version="1.1" id="Слой_1" xmlns="http://www.w3.org/2000/svg" xmlns:xlink="http://www.w3.org/1999/xlink" x="0px" y="0px" viewBox="0 0 21.3 21.3" style="enable-background:new 0 0 21.3 21.3;" xml:space="preserve"><style type="text/css">.st0{fill:#7E6579;}</style><title>ЛК</title><path class="st0" d="M13.6,13.2c1.8-1.1,2.9-3.3,2.9-5.9c0-4-2.6-7.3-5.9-7.3C7.4,0,4.8,3.3,4.8,7.3c0,2.6,1.1,4.8,2.9,5.9C3.8,14,0,17,0,20.6c0,0.4,0.3,0.7,0.6,0.7s0.6-0.3,0.6-0.7c0-3.5,4.6-6.3,8.4-6.3h1.9c3.8,0,8.4,2.8,8.4,6.3c0,0.4,0.3,0.7,0.7,0.7s0.7-0.3,0.7-0.7C21.3,17,17.5,14,13.6,13.2z M6.1,7.3c0-3.3,2-6,4.6-6c2.5,0,4.6,2.7,4.6,6c0,3.2-1.9,5.5-4.6,5.5C8,12.8,6.1,10.5,6.1,7.3z"/></svg>
