<svg xmlns="http://www.w3.org/2000/svg" viewBox="0 0 207.42 60"><defs><style>.cls-1,.cls-2{fill:#ad9672;}.cls-1{fill-rule:evenodd;}</style></defs><title>Лого</title><path class="cls-1" d="M23.63,23.25v6.33a9.38,9.38,0,0,1-3.47,2,14.38,14.38,0,0,1-4.45.75A11.33,11.33,0,0,1,7.17,29,12.44,12.44,0,0,1,4,20a12.37,12.37,0,0,1,3.21-8.93,11.1,11.1,0,0,1,8.41-3.39c3.26,0,5.81.84,7.61,2.46l1.63-3a15.21,15.21,0,0,0-9.68-3,14.11,14.11,0,0,0-11,4.53A16.13,16.13,0,0,0,0,20c0,4.8,1.41,8.67,4.23,11.53s6.6,4.31,11.39,4.31a19.23,19.23,0,0,0,6.3-1.14,13.54,13.54,0,0,0,5.23-3.13V19.73H15.32v3.52ZM52.24,35.39V31.87H38.16V21.57H50.48V18.05H38.16V8.11H51.8V4.59H34.42v30.8ZM63.46,23.07h5l9.46,12.32h4.58l-10.26-13a8.93,8.93,0,0,0,4.71-3,8.57,8.57,0,0,0,2-5.73Q79,4.48,68,4.5c-.22,0-1.49,0-3.83,0s-3.78,0-4.44,0v30.8h3.74V23.07ZM67.77,8C72.57,8,75,9.91,75,13.7A5.15,5.15,0,0,1,72.88,18,7.79,7.79,0,0,1,68,19.55H63.46V8.11c1.94,0,3.39-.09,4.31-.09Zm33.62,19.5c0,3-2.64,4.79-6,4.79a10,10,0,0,1-7.62-3.65L85.6,31.21a7.72,7.72,0,0,0,3.91,3.39,14.18,14.18,0,0,0,5.81,1.23,10.91,10.91,0,0,0,7.13-2.28,7.4,7.4,0,0,0,2.91-6.08c0-10.52-15-7.66-15-15.27,0-2.77,2.15-4.53,5.54-4.53a8.46,8.46,0,0,1,6.25,2.51l2-2.82c-1.76-1.94-5-3.21-8.49-3.21a9.62,9.62,0,0,0-6.78,2.33,7.45,7.45,0,0,0-2.51,5.72c0,10.21,15,7.79,15,15.32Zm35.21,7.87V4.59h-3.74V17.92H115.92V4.59h-3.74v30.8h3.74V21.44h16.94v14ZM143.42,20a15.21,15.21,0,0,0,15.71,15.84,15.19,15.19,0,0,0,11.22-4.49A15.48,15.48,0,0,0,174.84,20a15.33,15.33,0,0,0-4.49-11.4,14.88,14.88,0,0,0-3.73-2.74l-2.43,2.92a11.41,11.41,0,0,1,3.3,2.42,12.13,12.13,0,0,1,3.39,8.8,12.34,12.34,0,0,1-3.3,8.8,11,11,0,0,1-8.45,3.52,11.21,11.21,0,0,1-8.36-3.52,12.37,12.37,0,0,1-3.39-8.8,12.2,12.2,0,0,1,3.35-8.84,11.1,11.1,0,0,1,3.84-2.65l-2.39-2.88a14.75,14.75,0,0,0-4.31,3.11A15.51,15.51,0,0,0,143.42,20Zm64-15.4h-3.52V28.88L184.66,4.59h-3v30.8h3.52V11.19l19.24,24.2h3Z"/><rect class="cls-2" y="41.69" width="207.41" height="2.39"/><path class="cls-1" d="M154.86.3l1.54,2.48h-3.61L154.86.3Zm9.27,0,2.07,2.48h-3.61L164.13.3Zm-4.63,0,1.62,2.46h-3.25L159.5.32Zm2.36,2.14L163.49,0h-3.25l1.62,2.46Zm-4.73,0L158.76,0H155.5l1.63,2.46Zm2.36,9.16-1.85-8.13h3.71l-1.86,8.13Zm-.77-.13-1.86-8h-4.1l6,8Zm1.54,0,6-8h-4.1Z"/><polygon class="cls-1" points="0.06 59.87 5.84 59.87 5.84 58.79 1.2 58.79 1.2 50.46 0.06 50.46 0.06 59.87"/><path class="cls-1" d="M15,50.46H13.85v5.25c0,2.14-1,3.2-2.5,3.2-1.76,0-2.76-1.24-2.76-3.28V50.46H7.45v5.39c0,2.75,1.64,4.14,3.9,4.14C13.27,60,15,58.82,15,55.94Z"/><polygon class="cls-1" points="24.94 50.46 23.58 50.46 20.89 54.22 18.16 50.46 16.82 50.46 20.13 55.08 16.67 59.87 18.02 59.87 20.85 55.95 23.7 59.87 25.06 59.87 21.61 55.08 24.94 50.46"/><path class="cls-1" d="M34.28,50.46H33.14v5.25c0,2.14-1,3.2-2.5,3.2-1.76,0-2.76-1.24-2.76-3.28V50.46H26.74v5.39c0,2.75,1.64,4.14,3.9,4.14,1.92,0,3.64-1.17,3.64-4.05Z"/><path class="cls-1" d="M38.25,59.87V56.1h1.53l2.89,3.77h1.4l-3.14-4a2.71,2.71,0,0,0,2-2.66c0-1.52-.78-2.8-3.35-2.8l-2.53,0v9.41Zm1.31-8.36c1.67,0,2.21.76,2.21,1.73A2,2,0,0,1,39.63,55H38.25v-3.5Z"/><polygon class="cls-1" points="51.89 50.46 50.64 50.46 47.99 54.76 45.36 50.46 44.04 50.46 47.37 55.83 47.37 59.87 48.52 59.87 48.52 55.83 51.89 50.46"/><path class="cls-1" d="M61.82,50.46H60.68v7.08c0,.81-.24,1.39-1.06,1.39a1.58,1.58,0,0,1-.89-.3l-.39.87a2.16,2.16,0,0,0,1.43.5c1.45,0,2-.86,2-2.27Z"/><polygon class="cls-1" points="64.78 59.87 70.22 59.87 70.22 58.79 65.92 58.79 65.92 55.65 69.69 55.65 69.69 54.57 65.92 54.57 65.92 51.53 70.09 51.53 70.09 50.46 64.78 50.46 64.78 59.87"/><polygon class="cls-1" points="84.14 50.46 83.02 50.46 80.88 57.94 78.38 50.46 77.28 50.46 74.85 57.94 72.66 50.46 71.37 50.46 74.22 59.87 75.26 59.87 77.79 52.3 80.37 59.87 81.42 59.87 84.14 50.46"/><polygon class="cls-1" points="85.81 59.87 91.26 59.87 91.26 58.79 86.96 58.79 86.96 55.65 90.72 55.65 90.72 54.57 86.96 54.57 86.96 51.53 91.13 51.53 91.13 50.46 85.81 50.46 85.81 59.87"/><polygon class="cls-1" points="93.68 59.87 99.46 59.87 99.46 58.79 94.82 58.79 94.82 50.46 93.68 50.46 93.68 59.87"/><path class="cls-1" d="M102.35,59.87V56.1h1.53l2.89,3.77h1.4l-3.13-4a2.71,2.71,0,0,0,2-2.66c0-1.52-.78-2.8-3.35-2.8l-2.52,0v9.41Zm1.32-8.36c1.66,0,2.2.76,2.2,1.73A2,2,0,0,1,103.73,55h-1.38v-3.5Z"/><polygon class="cls-1" points="115.99 50.46 114.74 50.46 112.09 54.76 109.46 50.46 108.14 50.46 111.48 55.83 111.48 59.87 112.62 59.87 112.62 55.83 115.99 50.46"/><path class="cls-1" d="M127.07,59.87h1.34l-1.57-2a7.2,7.2,0,0,0,1.18-4H127a6.46,6.46,0,0,1-.78,3.18l-2.28-2.94a1.84,1.84,0,0,0,1.39-1.79,2.08,2.08,0,0,0-4.15,0,1.8,1.8,0,0,0,1.25,1.78c-1.12.75-2.23,1.69-2.23,3.26a2.77,2.77,0,0,0,3,2.69,3.45,3.45,0,0,0,2.89-1.37l1,1.24Zm-3.85-.94a1.82,1.82,0,0,1-1.85-1.83c0-1,.72-1.68,1.71-2.42l2.35,3.09a2.54,2.54,0,0,1-2.21,1.16Zm-1.07-6.66a1.06,1.06,0,0,1,1.06-1.07,1.08,1.08,0,0,1,1.08,1.07,1.07,1.07,0,0,1-2.14,0Z"/><path class="cls-1" d="M133.72,59.87h.15l2.31,0c3.59,0,5.39-2.17,5.39-4.85,0-2.46-1.52-4.62-5.28-4.62-.77,0-1.79,0-2.41,0h-.16v9.41Zm2.54-8.38c2.73,0,4.1,1.51,4.1,3.55s-1.45,3.78-4.14,3.78l-1.36,0V51.53C135.34,51.52,135.7,51.49,136.26,51.49Z"/><rect class="cls-2" x="144.06" y="50.46" width="1.14" height="9.41"/><path class="cls-1" d="M147.22,59.87h1.15l1.2-2.85h4.29l1.21,2.85h1.22l-4-9.47h-1l-4,9.47Zm4.5-7.95,1.69,4H150Z"/><polygon class="cls-1" points="158.04 59.87 159.18 59.87 159.18 52.3 162.55 56.94 162.73 56.94 166.06 52.26 166.06 59.87 167.21 59.87 167.21 50.46 166.12 50.46 162.73 55.28 159.19 50.46 158.04 50.46 158.04 59.87"/><path class="cls-1" d="M169.42,55.16a4.8,4.8,0,1,0,4.8-4.84,4.66,4.66,0,0,0-4.8,4.84Zm1.21,0a3.59,3.59,0,1,1,3.59,3.77A3.63,3.63,0,0,1,170.63,55.16Z"/><polygon class="cls-1" points="189.1 59.87 189.1 50.46 188.03 50.46 188.03 57.88 182.15 50.46 181.24 50.46 181.24 59.87 182.31 59.87 182.31 52.47 188.19 59.87 189.1 59.87"/><path class="cls-1" d="M192.06,59.87h.15l2.31,0c3.59,0,5.39-2.17,5.39-4.85,0-2.46-1.52-4.62-5.28-4.62-.77,0-1.79,0-2.41,0h-.16v9.41Zm2.54-8.38c2.73,0,4.1,1.51,4.1,3.55s-1.45,3.78-4.14,3.78l-1.36,0V51.53C193.67,51.52,194,51.49,194.6,51.49Z"/><path class="cls-1" d="M206.21,57.46c0,.95-.86,1.47-1.84,1.47a3.08,3.08,0,0,1-2.32-1.12l-.66.78a3.47,3.47,0,0,0,3,1.41c1.71,0,3.06-1,3.06-2.55,0-3.22-4.59-2.34-4.59-4.67,0-.83.64-1.38,1.69-1.38a2.56,2.56,0,0,1,1.91.76l.62-.86a3.57,3.57,0,0,0-2.6-1,2.53,2.53,0,0,0-2.83,2.46C201.62,55.9,206.21,55.16,206.21,57.46Z"/></svg>
