
<svg version="1.1" xmlns="http://www.w3.org/2000/svg" xmlns:xlink="http://www.w3.org/1999/xlink" x="0px" y="0px" viewBox="0 0 21.2 21" style="enable-background:new 0 0 21.2 21;" xml:space="preserve"><style type="text/css">.st0{fill:#7E6579;}</style><title>Поиск</title><path class="st0" d="M21.2,8.6c0-2.3-0.9-4.5-2.5-6.2c-1.6-1.6-3.8-2.6-6.1-2.6c0,0,0,0,0,0c-4.8,0-8.7,3.9-8.7,8.8c0,2.3,0.9,4.3,2.3,5.9l-6,5.5c-0.3,0.2-0.3,0.7,0,0.9c0.1,0.1,0.3,0.2,0.5,0.2c0.2,0,0.3-0.1,0.4-0.2l6.1-5.6c1.5,1.2,3.4,2,5.5,2c0,0,0,0,0,0C17.4,17.3,21.3,13.4,21.2,8.6l-0.7,0L21.2,8.6z M19.9,8.6c0,4.1-3.3,7.5-7.4,7.5c0,0,0,0,0,0c-4.1,0-7.4-3.3-7.4-7.4c0-4.1,3.3-7.5,7.4-7.5c0,0,0,0,0,0c2,0,3.8,0.8,5.2,2.2C19.2,4.7,19.9,6.6,19.9,8.6L19.9,8.6z"/></svg>
