
<svg version="1.1" id="Слой_1" xmlns="http://www.w3.org/2000/svg" xmlns:xlink="http://www.w3.org/1999/xlink" x="0px" y="0px"
	 viewBox="0 0 21.3 21.3" style="enable-background:new 0 0 21.3 21.3;" xml:space="preserve">
<style type="text/css">
	.st0{fill:#7E6579;}
</style>
<title>Сравнение</title>
<g>
	<path class="st0" d="M0.6,21.3C0.3,21.3,0,21,0,20.7v-20C0,0.3,0.3,0,0.6,0s0.6,0.3,0.6,0.6v20C1.3,21,1,21.3,0.6,21.3z"/>
</g>
<g>
	<path class="st0" d="M6.5,21.3c-0.4,0-0.6-0.3-0.6-0.7V6.2c0-0.4,0.3-0.6,0.6-0.6s0.6,0.3,0.6,0.6v14.4C7.1,21,6.8,21.3,6.5,21.3z"
		/>
</g>
<g>
	<path class="st0" d="M20.7,21.3c-0.4,0-0.7-0.3-0.7-0.7V6.2c0-0.4,0.3-0.6,0.7-0.6s0.7,0.3,0.7,0.6v14.4C21.3,21,21,21.3,20.7,21.3
		z"/>
</g>
<g>
	<path class="st0" d="M13.6,21.3c-0.4,0-0.7-0.3-0.7-0.7V2.9c0-0.4,0.3-0.6,0.7-0.6s0.7,0.3,0.7,0.6v17.8
		C14.2,21,13.9,21.3,13.6,21.3z"/>
</g>
</svg>
