<svg id="Слой_1" data-name="Слой 1" xmlns="http://www.w3.org/2000/svg" xmlns:xlink="http://www.w3.org/1999/xlink" viewBox="0 0 163.43 20"><defs><style>.cls-1,.cls-2,.cls-3,.cls-4,.cls-5,.cls-6{fill-rule:evenodd;}.cls-1{fill:url(#GradientFill_1);}.cls-2{fill:url(#GradientFill_1-2);}.cls-3{fill:url(#GradientFill_1-3);}.cls-4{fill:url(#GradientFill_2);}.cls-5{fill:url(#GradientFill_2-2);}.cls-6{fill:url(#GradientFill_2-3);}.cls-7{fill:#9a9b9f;}</style><linearGradient id="GradientFill_1" y1="2.5" x2="17.32" y2="2.5" gradientUnits="userSpaceOnUse"><stop offset="0" stop-color="#601600"/><stop offset="0.5" stop-color="#f24a41"/><stop offset="1" stop-color="#fa9176"/></linearGradient><linearGradient id="GradientFill_1-2" x1="6.49" y1="21.25" x2="-2.17" y2="6.25" xlink:href="#GradientFill_1"/><linearGradient id="GradientFill_1-3" x1="19.49" y1="6.24" x2="10.83" y2="21.24" xlink:href="#GradientFill_1"/><linearGradient id="GradientFill_2" x1="34.64" y1="17.5" x2="17.32" y2="17.5" gradientUnits="userSpaceOnUse"><stop offset="0" stop-color="#001035"/><stop offset="0.5" stop-color="#417cc0"/><stop offset="1" stop-color="#85b2dc"/></linearGradient><linearGradient id="GradientFill_2-2" x1="15.15" y1="13.75" x2="23.81" y2="-1.25" xlink:href="#GradientFill_2"/><linearGradient id="GradientFill_2-3" x1="28.15" y1="-1.25" x2="36.81" y2="13.75" xlink:href="#GradientFill_2"/></defs><title>АЛРОСА</title><polygon class="cls-1" points="0 5 17.32 5 8.66 0 0 5"/><polygon class="cls-2" points="0 5 0 15 8.66 20 0 5"/><polygon class="cls-3" points="8.66 20 17.32 15 17.32 5 8.66 20"/><polygon class="cls-4" points="17.32 15 25.98 20 34.64 15 17.32 15"/><polygon class="cls-5" points="25.98 0 17.32 5 17.32 15 25.98 0 25.98 0"/><polygon class="cls-6" points="34.64 15 34.64 5 25.98 0 34.64 15"/><path class="cls-7" d="M68.27.48l-7.6,19H66L71.13,5.42l5.12,14.1h5.33L74,.48Z"/><path class="cls-7" d="M111.06,0c-6.15,0-10.65,3.93-10.65,10s4.4,10,10.65,10,10.67-3.83,10.67-10S117.3,0,111.06,0Zm0,15.78a5.44,5.44,0,0,1-5.61-5.27,2.8,2.8,0,0,1,0-.5,5.42,5.42,0,0,1,5.09-5.76,4.34,4.34,0,0,1,.51,0c3.4,0,5.6,2.27,5.6,5.77a5.39,5.39,0,0,1-5,5.76A4.26,4.26,0,0,1,111.06,15.78Z"/><path class="cls-7" d="M37.28,19.48H43L50.86,15H44.4l3.85-9.82,5.63,14.34h5.34L50.86.48H45.64l-8.36,19"/><path class="cls-7" d="M91.13.48h-8v19h5.06V4.67h2.49c1.8,0,3.37.92,3.37,2.92s-1.57,2.91-3.37,2.91H89.36l2.29,3.83c3.72,0,7.29-2.3,7.29-7S95.4.48,91.13.48Z"/><path class="cls-7" d="M155.13.48h-5.24l-8.34,19h5.34l5.63-14.34L156.31,15h-6.46l7.86,4.52h5.72Z"/><path class="cls-7" d="M133.83,4.24a10.63,10.63,0,0,1,4.92,1.28l1.66-3.78A13.47,13.47,0,0,0,133.92,0c-6.86,0-10.49,4.83-10.49,10s3.7,10,10.49,10a13.46,13.46,0,0,0,6.49-1.73l-1.66-3.78a10.61,10.61,0,0,1-4.92,1.29,5.52,5.52,0,0,1-5.36-5.68.34.34,0,0,1,0-.1,5.51,5.51,0,0,1,5.27-5.76Z"/></svg>