<svg id="Слой_1" data-name="Слой 1" xmlns="http://www.w3.org/2000/svg" viewBox="0 0 37.96 50"><defs><style>.cls-1{fill:#9a9b9f;}</style></defs><title>Гемцентр</title><rect class="cls-1" x="5.89" y="21.7" width="0.23" height="6.04"/><polygon class="cls-1" points="5.02 20.57 5.21 19.45 5.64 19.59 5.57 19.81 5.4 19.75 5.25 20.61 5.02 20.57"/><polygon class="cls-1" points="5.52 20.42 5.43 19.73 5.66 19.7 5.75 20.39 5.52 20.42"/><rect class="cls-1" x="5.89" y="21.7" width="0.23" height="5.9"/><polygon class="cls-1" points="5.02 20.57 5.21 19.45 5.64 19.59 5.57 19.81 5.4 19.75 5.25 20.61 5.02 20.57"/><polygon class="cls-1" points="5.52 20.42 5.43 19.73 5.66 19.7 5.75 20.39 5.52 20.42"/><rect class="cls-1" x="5.89" y="21.7" width="0.23" height="6.04"/><polygon class="cls-1" points="5.02 20.57 5.21 19.45 5.64 19.59 5.57 19.81 5.4 19.75 5.25 20.61 5.02 20.57"/><polygon class="cls-1" points="5.52 20.42 5.43 19.73 5.66 19.7 5.75 20.39 5.52 20.42"/><rect class="cls-1" x="5.89" y="21.7" width="0.23" height="5.9"/><polygon class="cls-1" points="5.02 20.57 5.21 19.45 5.64 19.59 5.57 19.81 5.4 19.75 5.25 20.61 5.02 20.57"/><polygon class="cls-1" points="5.52 20.42 5.43 19.73 5.66 19.7 5.75 20.39 5.52 20.42"/><rect class="cls-1" x="15.28" y="16.27" width="0.61" height="0.23"/><rect class="cls-1" x="22.01" y="16.21" width="0.63" height="0.23"/><rect class="cls-1" x="20.71" y="16.09" width="1.36" height="0.23"/><rect class="cls-1" x="15.93" y="16.09" width="1.31" height="0.23"/><rect class="cls-1" x="17.25" y="16.21" width="3.37" height="0.23"/><rect class="cls-1" x="6.44" y="21.7" width="0.23" height="5.65"/><rect class="cls-1" x="7" y="21.7" width="0.23" height="5.28"/><rect class="cls-1" x="7.49" y="21.7" width="0.23" height="4.91"/><rect class="cls-1" x="31.84" y="21.64" width="0.23" height="6.08"/><rect class="cls-1" x="31.35" y="22.01" width="0.23" height="5.3"/><rect class="cls-1" x="30.79" y="21.64" width="0.23" height="5.23"/><rect class="cls-1" x="30.23" y="21.64" width="0.23" height="4.93"/><rect class="cls-1" x="17.5" y="16.51" width="0.23" height="8.33"/><rect class="cls-1" x="18.06" y="16.51" width="0.23" height="8.33"/><rect class="cls-1" x="20.22" y="16.51" width="0.23" height="8.33"/><rect class="cls-1" x="19.66" y="16.51" width="0.23" height="8.33"/><rect class="cls-1" x="19.11" y="16.51" width="0.23" height="7.05"/><rect class="cls-1" x="18.61" y="16.51" width="0.23" height="6.98"/><rect class="cls-1" x="18.61" y="16.51" width="0.23" height="6.8"/><rect class="cls-1" x="19.6" y="11.88" width="0.23" height="3.19"/><rect class="cls-1" x="19.11" y="11.88" width="0.23" height="3.19"/><rect class="cls-1" x="18.61" y="11.88" width="0.23" height="3.19"/><rect class="cls-1" x="18.18" y="11.88" width="0.23" height="3.19"/><rect class="cls-1" x="17.99" y="11.52" width="2.04" height="0.23"/><polygon class="cls-1" points="21.95 15.16 21.88 14.39 21.73 14.49 21.61 15.2 21.38 15.16 21.52 14.35 22.08 13.99 22.18 15.14 21.95 15.16"/><rect class="cls-1" x="23.13" y="22.2" width="0.23" height="3.83"/><rect class="cls-1" x="23.68" y="22.2" width="0.23" height="3.83"/><rect class="cls-1" x="28.56" y="22.2" width="0.23" height="3.83"/><rect class="cls-1" x="28.01" y="22.2" width="0.23" height="3.83"/><rect class="cls-1" x="27.45" y="22.2" width="0.23" height="3.83"/><rect class="cls-1" x="26.96" y="22.2" width="0.23" height="3.83"/><rect class="cls-1" x="26.4" y="22.2" width="0.23" height="3.83"/><rect class="cls-1" x="25.85" y="22.2" width="0.23" height="3.83"/><rect class="cls-1" x="25.29" y="22.2" width="0.23" height="3.83"/><rect class="cls-1" x="24.79" y="22.2" width="0.23" height="3.83"/><rect class="cls-1" x="24.24" y="22.2" width="0.23" height="3.83"/><rect class="cls-1" x="9.22" y="22.2" width="0.23" height="3.83"/><rect class="cls-1" x="9.72" y="22.2" width="0.23" height="3.83"/><rect class="cls-1" x="14.66" y="22.2" width="0.23" height="3.83"/><rect class="cls-1" x="14.1" y="22.2" width="0.23" height="3.83"/><rect class="cls-1" x="13.55" y="22.2" width="0.23" height="3.83"/><rect class="cls-1" x="12.99" y="22.2" width="0.23" height="3.83"/><rect class="cls-1" x="12.44" y="22.2" width="0.23" height="3.83"/><rect class="cls-1" x="11.94" y="22.2" width="0.23" height="3.83"/><rect class="cls-1" x="11.39" y="22.2" width="0.23" height="3.83"/><rect class="cls-1" x="10.83" y="22.2" width="0.23" height="3.83"/><rect class="cls-1" x="10.27" y="22.2" width="0.23" height="3.83"/><rect class="cls-1" x="9.22" y="22.2" width="0.23" height="3.83"/><rect class="cls-1" x="9.72" y="22.2" width="0.23" height="3.83"/><rect class="cls-1" x="14.66" y="22.2" width="0.23" height="3.83"/><rect class="cls-1" x="14.1" y="22.2" width="0.23" height="3.83"/><rect class="cls-1" x="13.55" y="22.2" width="0.23" height="3.83"/><rect class="cls-1" x="12.99" y="22.2" width="0.23" height="3.83"/><rect class="cls-1" x="12.44" y="22.2" width="0.23" height="3.83"/><rect class="cls-1" x="11.94" y="22.2" width="0.23" height="3.83"/><rect class="cls-1" x="11.39" y="22.2" width="0.23" height="3.83"/><rect class="cls-1" x="10.83" y="22.2" width="0.23" height="3.83"/><rect class="cls-1" x="21.95" y="15.22" width="0.23" height="10.88"/><rect class="cls-1" x="10.27" y="22.2" width="0.23" height="3.83"/><rect class="cls-1" x="22.67" y="21.83" width="6.51" height="0.23"/><rect class="cls-1" x="29.19" y="21.09" width="3.94" height="0.23"/><polygon class="cls-1" points="19.82 6.49 19.21 6.38 19.25 6.15 19.87 6.26 19.82 6.49"/><polygon class="cls-1" points="20.1 7.53 19.59 7.24 18.98 7.18 19 6.95 19.66 7.02 20.21 7.33 20.1 7.53"/><path class="cls-1" d="M20.34,9.94l-.47-.27-.47-.15L19,9.5V9.27a2.31,2.31,0,0,1,1.47.47Z"/><polygon class="cls-1" points="20.65 15.46 18.97 15.48 18.97 15.25 20.65 15.22 20.65 15.46"/><rect class="cls-1" x="20.67" y="15.1" width="1.53" height="0.23"/><rect class="cls-1" x="22.04" y="15.47" width="0.83" height="0.23"/><path class="cls-1" d="M20.34,9.82l-.47-.27-.47-.13L19,9.37l0-.23a2.78,2.78,0,0,1,1.47.47Z"/><polygon class="cls-1" points="20.1 7.47 19.59 7.21 18.98 7.14 19 6.91 19.66 6.98 20.21 7.26 20.1 7.47"/><polygon class="cls-1" points="19.4 5.54 19.32 5.87 19.09 5.81 19.18 5.49 19.4 5.54"/><rect class="cls-1" x="19.27" y="5.98" width="0.55" height="0.23" transform="translate(-0.19 11.56) rotate(-32.79)"/><polygon class="cls-1" points="19.01 0.46 19.05 0.45 18.91 0.09 19.13 0 19.36 0.6 19.07 0.68 19.01 0.46"/><polygon class="cls-1" points="19.58 0.23 19.42 0.79 19.08 0.95 18.98 0.74 19.23 0.62 19.36 0.17 19.58 0.23"/><polygon class="cls-1" points="19.16 23.89 19.16 25.04 18.75 25.04 18.75 23.74 19.16 23.79 19.16 23.89"/><polygon class="cls-1" points="19.19 5.39 19.48 4.9 19.18 4.75 18.98 1.09 19.38 0.7 19.32 0.21 19.55 0.18 19.62 0.79 19.22 1.18 19.4 4.6 19.81 4.81 19.39 5.51 19.19 5.39"/><rect class="cls-1" x="19.38" y="5.57" width="0.23" height="0.59" transform="translate(8.57 23.04) rotate(-74.28)"/><polygon class="cls-1" points="19.73 7.18 19.73 6.45 19.25 6.35 19.29 6.13 19.96 6.26 19.96 7.18 19.73 7.18"/><rect class="cls-1" x="19.11" y="7.08" width="0.23" height="2.2"/><rect class="cls-1" x="19.6" y="7.13" width="0.23" height="2.27"/><rect class="cls-1" x="19.91" y="7.4" width="0.23" height="2.13"/><rect class="cls-1" x="19.29" y="9.33" width="0.23" height="1.38"/><rect class="cls-1" x="19.91" y="9.53" width="0.23" height="1.17"/><rect class="cls-1" x="20.16" y="9.7" width="0.23" height="0.94"/><polygon class="cls-1" points="20.78 10.65 20.77 10.58 20.75 10.67 20.53 10.62 20.89 8.96 21.01 10.63 20.78 10.65"/><rect class="cls-1" x="20.03" y="11.45" width="0.87" height="0.23"/><rect class="cls-1" x="18.99" y="10.65" width="1.04" height="0.23"/><polygon class="cls-1" points="20.78 15.15 20.78 10.72 20.1 10.72 20.1 15.27 19.87 15.27 19.87 10.49 21.01 10.49 21.01 15.15 20.78 15.15"/><path class="cls-1" d="M30.69,17.78l.4-.15.45.17.18.48-.18.45-.45.2-.45-.2-.18-.45.18-.48Zm.4.09-.27.11-.11.3.11.28.27.12.27-.12.12-.28-.12-.3Z"/><polygon class="cls-1" points="24.12 19.95 24.01 19.63 23.87 19.98 23.66 19.89 24.03 18.96 24.34 19.88 24.12 19.95"/><polygon class="cls-1" points="24.24 21.09 24.24 20.05 23.81 20.05 23.81 21.09 23.58 21.09 23.58 19.82 24.47 19.82 24.47 21.09 24.24 21.09"/><rect class="cls-1" x="22.65" y="21.22" width="6.46" height="0.23"/><polygon class="cls-1" points="31.16 16.36 31.3 15.84 30.91 15.84 31.03 16.36 30.8 16.41 30.62 15.61 31.59 15.61 31.39 16.42 31.16 16.36"/><polygon class="cls-1" points="31.34 17.5 31.34 16.56 30.84 16.56 30.84 17.52 30.6 17.52 30.6 16.33 31.58 16.33 31.58 17.5 31.34 17.5"/><polygon class="cls-1" points="19.14 25.03 19.23 24.92 19.13 24.95 18.92 24.36 19.14 24.28 19.28 24.66 19.86 24.51 19.32 25.18 19.14 25.03"/><polygon class="cls-1" points="20.65 15.39 19.09 15.48 19.07 15.25 20.64 15.16 20.65 15.39"/><polygon class="cls-1" points="22.25 15.27 20.8 15.27 20.8 25.05 20.57 25.05 20.57 15.04 22.25 15.04 22.25 15.27"/><rect class="cls-1" x="22.06" y="15.41" width="0.87" height="0.23"/><rect class="cls-1" x="22.57" y="15.58" width="0.23" height="10.45"/><rect class="cls-1" x="22.69" y="20.97" width="6.42" height="0.23"/><polygon class="cls-1" points="32.77 20.61 32.62 19.75 32.45 19.81 32.38 19.59 32.8 19.45 33 20.57 32.77 20.61"/><polygon class="cls-1" points="29.86 20.43 29.73 19.83 29.63 19.79 29.5 20.61 29.27 20.57 29.44 19.46 29.93 19.66 30.09 20.38 29.86 20.43"/><polygon class="cls-1" points="29.06 26.03 29.06 20.47 33.23 20.47 33.23 28.58 33 28.58 33 20.7 29.29 20.7 29.29 26.03 29.06 26.03"/><polygon class="cls-1" points="31.84 20.41 31.84 17.61 30.38 17.61 30.38 20.41 30.14 20.41 30.14 17.38 32.07 17.38 32.07 20.41 31.84 20.41"/><polygon class="cls-1" points="32.21 20.39 32.3 19.7 32.53 19.73 32.44 20.42 32.21 20.39"/><polygon class="cls-1" points="32.4 28.19 32.4 20.57 30 20.57 30 26.29 29.77 26.29 29.77 20.34 32.63 20.34 32.63 28.19 32.4 28.19"/><rect class="cls-1" x="8.78" y="21.83" width="6.51" height="0.23"/><rect class="cls-1" x="4.83" y="21.09" width="3.94" height="0.23"/><polygon class="cls-1" points="18.09 6.26 18.71 6.15 18.75 6.38 18.13 6.49 18.09 6.26"/><polygon class="cls-1" points="17.81 7.33 18.36 7.02 19.02 6.95 19.05 7.18 18.43 7.24 17.92 7.53 17.81 7.33"/><path class="cls-1" d="M17.5,9.74A2.31,2.31,0,0,1,19,9.27V9.5l-.43,0-.46.15-.47.27Z"/><polygon class="cls-1" points="17.31 15.22 18.99 15.25 18.98 15.48 17.31 15.46 17.31 15.22"/><rect class="cls-1" x="15.77" y="15.1" width="1.53" height="0.23"/><rect class="cls-1" x="15.09" y="15.47" width="0.83" height="0.23"/><polygon class="cls-1" points="15.77 15.14 15.88 13.99 16.44 14.35 16.58 15.16 16.35 15.2 16.23 14.49 16.07 14.39 16 15.16 15.77 15.14"/><path class="cls-1" d="M17.5,9.61A2.75,2.75,0,0,1,19,9.14l0,.23-.43.05-.47.13-.47.27Z"/><polygon class="cls-1" points="17.81 7.26 18.36 6.98 19.02 6.91 19.05 7.14 18.43 7.21 17.92 7.47 17.81 7.26"/><rect class="cls-1" x="18.6" y="5.51" width="0.23" height="0.33" transform="translate(-0.83 5.04) rotate(-15)"/><polygon class="cls-1" points="18.3 5.85 18.77 6.15 18.64 6.34 18.17 6.04 18.3 5.85"/><polygon class="cls-1" points="18.89 0.68 18.59 0.6 18.83 0 19.05 0.09 18.9 0.45 18.95 0.46 18.89 0.68"/><polygon class="cls-1" points="18.66 0.17 18.79 0.62 19.02 0.74 18.92 0.95 18.6 0.79 18.43 0.23 18.66 0.17"/><polygon class="cls-1" points="18.8 25.04 18.8 23.79 19.2 23.74 19.2 25.04 18.8 25.04"/><path class="cls-1" d="M18.57,5.51l-.45-.7.44-.21.16-3.42L18.34.79,18.4.18l.24,0L18.58.7l.38.39-.18,3.66-.32.15.31.49Z"/><rect class="cls-1" x="18.23" y="5.75" width="0.59" height="0.23" transform="translate(-0.9 5.22) rotate(-15.66)"/><polygon class="cls-1" points="18 7.18 18 6.26 18.66 6.13 18.71 6.35 18.23 6.45 18.23 7.18 18 7.18"/><rect class="cls-1" x="18.61" y="7.08" width="0.23" height="2.2"/><rect class="cls-1" x="18.18" y="7.13" width="0.23" height="2.27"/><rect class="cls-1" x="17.81" y="7.4" width="0.23" height="2.13"/><rect class="cls-1" x="18.49" y="9.33" width="0.23" height="1.38"/><rect class="cls-1" x="17.87" y="9.53" width="0.23" height="1.17"/><rect class="cls-1" x="17.56" y="9.7" width="0.23" height="0.94"/><polygon class="cls-1" points="16.95 10.63 17.07 8.96 17.43 10.62 17.2 10.67 17.18 10.58 17.18 10.65 16.95 10.63"/><rect class="cls-1" x="17.06" y="11.45" width="0.87" height="0.23"/><rect class="cls-1" x="17.99" y="10.65" width="1.04" height="0.23"/><polygon class="cls-1" points="16.95 15.15 16.95 10.49 18.09 10.49 18.09 15.27 17.86 15.27 17.86 10.72 17.18 10.72 17.18 15.15 16.95 15.15"/><path class="cls-1" d="M7.14,18l-.27-.11L6.6,18l-.12.3.12.28.27.12.27-.12.11-.28Zm-.23-.34.41.16.18.48-.18.45-.45.2-.45-.2-.19-.45.19-.48.45-.17Z"/><polygon class="cls-1" points="13.62 19.88 13.93 18.96 14.3 19.89 14.09 19.98 13.95 19.63 13.84 19.95 13.62 19.88"/><polygon class="cls-1" points="13.49 21.09 13.49 19.82 14.38 19.82 14.38 21.09 14.14 21.09 14.14 20.05 13.72 20.05 13.72 21.09 13.49 21.09"/><rect class="cls-1" x="8.84" y="21.22" width="6.46" height="0.23"/><polygon class="cls-1" points="6.63 16.42 6.42 15.61 7.4 15.61 7.22 16.41 6.99 16.36 7.11 15.84 6.72 15.84 6.86 16.36 6.63 16.42"/><polygon class="cls-1" points="6.38 17.5 6.38 16.33 7.35 16.33 7.35 17.52 7.12 17.52 7.12 16.56 6.61 16.56 6.61 17.5 6.38 17.5"/><polygon class="cls-1" points="18.64 25.17 18.14 24.51 18.7 24.66 18.83 24.28 19.05 24.36 18.85 24.95 18.73 24.91 18.82 25.03 18.64 25.17"/><polygon class="cls-1" points="17.32 15.16 18.89 15.25 18.87 15.48 17.3 15.39 17.32 15.16"/><polygon class="cls-1" points="15.77 15.04 17.45 15.04 17.45 25.05 17.22 25.05 17.22 15.27 15.77 15.27 15.77 15.04"/><rect class="cls-1" x="15.84" y="15.19" width="0.23" height="10.84"/><rect class="cls-1" x="15.09" y="15.41" width="0.87" height="0.23"/><rect class="cls-1" x="15.22" y="15.58" width="0.23" height="10.45"/><rect class="cls-1" x="8.84" y="20.97" width="6.42" height="0.23"/><polygon class="cls-1" points="7.93 20.38 8.09 19.66 8.58 19.46 8.75 20.57 8.52 20.61 8.39 19.79 8.29 19.83 8.15 20.43 7.93 20.38"/><polygon class="cls-1" points="8.67 26.03 8.67 20.7 4.96 20.7 4.96 28.58 4.72 28.58 4.72 20.47 8.9 20.47 8.9 26.03 8.67 26.03"/><polygon class="cls-1" points="5.95 20.41 5.95 17.38 7.85 17.38 7.85 20.41 7.62 20.41 7.62 17.61 6.18 17.61 6.18 20.41 5.95 20.41"/><polygon class="cls-1" points="5.39 28.19 5.39 20.34 8.25 20.34 8.25 26.29 8.02 26.29 8.02 20.57 5.63 20.57 5.63 28.19 5.39 28.19"/><rect class="cls-1" x="22.26" y="16.76" width="0.23" height="9.11"/><rect class="cls-1" x="15.52" y="16.76" width="0.23" height="9.11"/><rect class="cls-1" x="6.44" y="21.7" width="0.23" height="5.6"/><rect class="cls-1" x="7" y="21.7" width="0.23" height="5.28"/><rect class="cls-1" x="7.49" y="21.7" width="0.23" height="4.55"/><rect class="cls-1" x="31.84" y="21.64" width="0.23" height="5.69"/><rect class="cls-1" x="31.35" y="21.64" width="0.23" height="5.37"/><rect class="cls-1" x="30.79" y="21.64" width="0.23" height="4.93"/><rect class="cls-1" x="30.23" y="21.64" width="0.23" height="4.66"/><rect class="cls-1" x="17.5" y="16.51" width="0.23" height="8.33"/><rect class="cls-1" x="18.06" y="16.51" width="0.23" height="8.33"/><rect class="cls-1" x="20.22" y="16.51" width="0.23" height="8.33"/><rect class="cls-1" x="19.66" y="16.51" width="0.23" height="8.33"/><rect class="cls-1" x="19.6" y="11.88" width="0.23" height="3.19"/><rect class="cls-1" x="19.11" y="11.88" width="0.23" height="3.19"/><rect class="cls-1" x="18.61" y="11.88" width="0.23" height="3.19"/><rect class="cls-1" x="18.18" y="11.88" width="0.23" height="3.19"/><rect class="cls-1" x="17.99" y="11.52" width="2.04" height="0.23"/><polygon class="cls-1" points="21.95 15.16 21.88 14.39 21.73 14.49 21.61 15.2 21.38 15.16 21.52 14.35 22.08 13.99 22.18 15.14 21.95 15.16"/><rect class="cls-1" x="23.13" y="22.2" width="0.23" height="3.83"/><rect class="cls-1" x="23.68" y="22.2" width="0.23" height="3.83"/><rect class="cls-1" x="28.56" y="22.2" width="0.23" height="3.83"/><rect class="cls-1" x="28.01" y="22.2" width="0.23" height="3.83"/><rect class="cls-1" x="27.45" y="22.2" width="0.23" height="3.83"/><rect class="cls-1" x="26.96" y="22.2" width="0.23" height="3.83"/><rect class="cls-1" x="26.4" y="22.2" width="0.23" height="3.83"/><rect class="cls-1" x="25.85" y="22.2" width="0.23" height="3.83"/><rect class="cls-1" x="25.29" y="22.2" width="0.23" height="3.83"/><rect class="cls-1" x="24.79" y="22.2" width="0.23" height="3.83"/><rect class="cls-1" x="24.24" y="22.2" width="0.23" height="3.83"/><rect class="cls-1" x="9.22" y="22.2" width="0.23" height="3.83"/><rect class="cls-1" x="9.72" y="22.2" width="0.23" height="3.83"/><rect class="cls-1" x="14.66" y="22.2" width="0.23" height="3.83"/><rect class="cls-1" x="14.1" y="22.2" width="0.23" height="3.83"/><rect class="cls-1" x="13.55" y="22.2" width="0.23" height="3.83"/><rect class="cls-1" x="12.99" y="22.2" width="0.23" height="3.83"/><rect class="cls-1" x="12.44" y="22.2" width="0.23" height="3.83"/><rect class="cls-1" x="11.94" y="22.2" width="0.23" height="3.83"/><rect class="cls-1" x="11.39" y="22.2" width="0.23" height="3.83"/><rect class="cls-1" x="10.83" y="22.2" width="0.23" height="3.83"/><rect class="cls-1" x="10.27" y="22.2" width="0.23" height="3.83"/><rect class="cls-1" x="9.22" y="22.2" width="0.23" height="3.83"/><rect class="cls-1" x="9.72" y="22.2" width="0.23" height="3.83"/><rect class="cls-1" x="14.66" y="22.2" width="0.23" height="3.83"/><rect class="cls-1" x="14.1" y="22.2" width="0.23" height="3.83"/><rect class="cls-1" x="13.55" y="22.2" width="0.23" height="3.83"/><rect class="cls-1" x="12.99" y="22.2" width="0.23" height="3.83"/><rect class="cls-1" x="12.44" y="22.2" width="0.23" height="3.83"/><rect class="cls-1" x="11.94" y="22.2" width="0.23" height="3.83"/><rect class="cls-1" x="11.39" y="22.2" width="0.23" height="3.83"/><rect class="cls-1" x="10.83" y="22.2" width="0.23" height="3.83"/><rect class="cls-1" x="21.95" y="15.22" width="0.23" height="10.88"/><rect class="cls-1" x="10.27" y="22.2" width="0.23" height="3.83"/><rect class="cls-1" x="22.67" y="21.83" width="6.51" height="0.23"/><rect class="cls-1" x="29.19" y="21.09" width="3.94" height="0.23"/><polygon class="cls-1" points="19.82 6.49 19.21 6.38 19.25 6.15 19.87 6.26 19.82 6.49"/><polygon class="cls-1" points="20.1 7.53 19.59 7.24 18.98 7.18 19 6.95 19.66 7.02 20.21 7.33 20.1 7.53"/><path class="cls-1" d="M20.34,9.94l-.47-.27-.47-.15L19,9.5V9.27a2.31,2.31,0,0,1,1.47.47Z"/><polygon class="cls-1" points="20.65 15.46 18.97 15.48 18.97 15.25 20.65 15.22 20.65 15.46"/><rect class="cls-1" x="20.67" y="15.1" width="1.53" height="0.23"/><rect class="cls-1" x="22.04" y="15.47" width="0.83" height="0.23"/><path class="cls-1" d="M20.34,9.82l-.47-.27-.47-.13L19,9.37l0-.23a2.78,2.78,0,0,1,1.47.47Z"/><polygon class="cls-1" points="20.1 7.47 19.59 7.21 18.98 7.14 19 6.91 19.66 6.98 20.21 7.26 20.1 7.47"/><polygon class="cls-1" points="19.4 5.54 19.32 5.87 19.09 5.81 19.18 5.49 19.4 5.54"/><rect class="cls-1" x="19.27" y="5.98" width="0.55" height="0.23" transform="translate(-0.19 11.56) rotate(-32.79)"/><polygon class="cls-1" points="19.01 0.46 19.05 0.45 18.91 0.09 19.13 0 19.36 0.6 19.07 0.68 19.01 0.46"/><polygon class="cls-1" points="19.58 0.23 19.42 0.79 19.08 0.95 18.98 0.74 19.23 0.62 19.36 0.17 19.58 0.23"/><polygon class="cls-1" points="19.16 23.89 19.16 25.04 18.75 25.04 18.75 23.74 19.16 23.79 19.16 23.89"/><polygon class="cls-1" points="19.19 5.39 19.48 4.9 19.18 4.75 18.98 1.09 19.38 0.7 19.32 0.21 19.55 0.18 19.62 0.79 19.22 1.18 19.4 4.6 19.81 4.81 19.39 5.51 19.19 5.39"/><rect class="cls-1" x="19.38" y="5.57" width="0.23" height="0.59" transform="translate(8.57 23.04) rotate(-74.28)"/><polygon class="cls-1" points="19.73 7.18 19.73 6.45 19.25 6.35 19.29 6.13 19.96 6.26 19.96 7.18 19.73 7.18"/><rect class="cls-1" x="19.11" y="7.08" width="0.23" height="2.2"/><rect class="cls-1" x="19.6" y="7.13" width="0.23" height="2.27"/><rect class="cls-1" x="19.91" y="7.4" width="0.23" height="2.13"/><rect class="cls-1" x="19.29" y="9.33" width="0.23" height="1.38"/><rect class="cls-1" x="19.91" y="9.53" width="0.23" height="1.17"/><rect class="cls-1" x="20.16" y="9.7" width="0.23" height="0.94"/><polygon class="cls-1" points="20.78 10.65 20.77 10.58 20.75 10.67 20.53 10.62 20.89 8.96 21.01 10.63 20.78 10.65"/><rect class="cls-1" x="20.03" y="11.45" width="0.87" height="0.23"/><rect class="cls-1" x="18.99" y="10.65" width="1.04" height="0.23"/><polygon class="cls-1" points="20.78 15.15 20.78 10.72 20.1 10.72 20.1 15.27 19.87 15.27 19.87 10.49 21.01 10.49 21.01 15.15 20.78 15.15"/><path class="cls-1" d="M30.69,17.78l.4-.15.45.17.18.48-.18.45-.45.2-.45-.2-.18-.45.18-.48Zm.4.09-.27.11-.11.3.11.28.27.12.27-.12.12-.28-.12-.3Z"/><polygon class="cls-1" points="24.12 19.95 24.01 19.63 23.87 19.98 23.66 19.89 24.03 18.96 24.34 19.88 24.12 19.95"/><polygon class="cls-1" points="24.24 21.09 24.24 20.05 23.81 20.05 23.81 21.09 23.58 21.09 23.58 19.82 24.47 19.82 24.47 21.09 24.24 21.09"/><rect class="cls-1" x="22.65" y="21.22" width="6.46" height="0.23"/><polygon class="cls-1" points="31.16 16.36 31.3 15.84 30.91 15.84 31.03 16.36 30.8 16.41 30.62 15.61 31.59 15.61 31.39 16.42 31.16 16.36"/><polygon class="cls-1" points="31.34 17.5 31.34 16.56 30.84 16.56 30.84 17.52 30.6 17.52 30.6 16.33 31.58 16.33 31.58 17.5 31.34 17.5"/><polygon class="cls-1" points="19.14 25.03 19.23 24.92 19.13 24.95 18.92 24.36 19.14 24.28 19.28 24.66 19.86 24.51 19.32 25.18 19.14 25.03"/><polygon class="cls-1" points="20.65 15.39 19.09 15.48 19.07 15.25 20.64 15.16 20.65 15.39"/><polygon class="cls-1" points="22.25 15.27 20.8 15.27 20.8 25.05 20.57 25.05 20.57 15.04 22.25 15.04 22.25 15.27"/><rect class="cls-1" x="22.06" y="15.41" width="0.87" height="0.23"/><rect class="cls-1" x="22.57" y="15.58" width="0.23" height="10.45"/><rect class="cls-1" x="22.69" y="20.97" width="6.42" height="0.23"/><polygon class="cls-1" points="32.77 20.61 32.62 19.75 32.45 19.81 32.38 19.59 32.8 19.45 33 20.57 32.77 20.61"/><polygon class="cls-1" points="29.86 20.43 29.73 19.83 29.63 19.79 29.5 20.61 29.27 20.57 29.44 19.46 29.93 19.66 30.09 20.38 29.86 20.43"/><polygon class="cls-1" points="29.06 26.03 29.06 20.47 33.23 20.47 33.23 28.58 33 28.58 33 20.7 29.29 20.7 29.29 26.03 29.06 26.03"/><polygon class="cls-1" points="31.84 20.41 31.84 17.61 30.38 17.61 30.38 20.41 30.14 20.41 30.14 17.38 32.07 17.38 32.07 20.41 31.84 20.41"/><polygon class="cls-1" points="32.21 20.39 32.3 19.7 32.53 19.73 32.44 20.42 32.21 20.39"/><polygon class="cls-1" points="32.4 28.19 32.4 20.57 30 20.57 30 26.29 29.77 26.29 29.77 20.34 32.63 20.34 32.63 28.19 32.4 28.19"/><rect class="cls-1" x="8.78" y="21.83" width="6.51" height="0.23"/><rect class="cls-1" x="4.83" y="21.09" width="3.94" height="0.23"/><polygon class="cls-1" points="18.09 6.26 18.71 6.15 18.75 6.38 18.13 6.49 18.09 6.26"/><polygon class="cls-1" points="17.81 7.33 18.36 7.02 19.02 6.95 19.05 7.18 18.43 7.24 17.92 7.53 17.81 7.33"/><path class="cls-1" d="M17.5,9.74A2.31,2.31,0,0,1,19,9.27V9.5l-.43,0-.46.15-.47.27Z"/><polygon class="cls-1" points="17.31 15.22 18.99 15.25 18.98 15.48 17.31 15.46 17.31 15.22"/><rect class="cls-1" x="15.77" y="15.1" width="1.53" height="0.23"/><rect class="cls-1" x="15.09" y="15.47" width="0.83" height="0.23"/><polygon class="cls-1" points="15.77 15.14 15.88 13.99 16.44 14.35 16.58 15.16 16.35 15.2 16.23 14.49 16.07 14.39 16 15.16 15.77 15.14"/><path class="cls-1" d="M17.5,9.61A2.75,2.75,0,0,1,19,9.14l0,.23-.43.05-.47.13-.47.27Z"/><polygon class="cls-1" points="17.81 7.26 18.36 6.98 19.02 6.91 19.05 7.14 18.43 7.21 17.92 7.47 17.81 7.26"/><rect class="cls-1" x="18.6" y="5.51" width="0.23" height="0.33" transform="translate(-0.83 5.04) rotate(-15)"/><polygon class="cls-1" points="18.3 5.85 18.77 6.15 18.64 6.34 18.17 6.04 18.3 5.85"/><polygon class="cls-1" points="18.89 0.68 18.59 0.6 18.83 0 19.05 0.09 18.9 0.45 18.95 0.46 18.89 0.68"/><polygon class="cls-1" points="18.66 0.17 18.79 0.62 19.02 0.74 18.92 0.95 18.6 0.79 18.43 0.23 18.66 0.17"/><polygon class="cls-1" points="18.8 25.04 18.8 23.79 19.2 23.74 19.2 25.04 18.8 25.04"/><path class="cls-1" d="M18.57,5.51l-.45-.7.44-.21.16-3.42L18.34.79,18.4.18l.24,0L18.58.7l.38.39-.18,3.66-.32.15.31.49Z"/><rect class="cls-1" x="18.23" y="5.75" width="0.59" height="0.23" transform="translate(-0.9 5.22) rotate(-15.66)"/><polygon class="cls-1" points="18 7.18 18 6.26 18.66 6.13 18.71 6.35 18.23 6.45 18.23 7.18 18 7.18"/><rect class="cls-1" x="18.61" y="7.08" width="0.23" height="2.2"/><rect class="cls-1" x="18.18" y="7.13" width="0.23" height="2.27"/><rect class="cls-1" x="17.81" y="7.4" width="0.23" height="2.13"/><rect class="cls-1" x="18.49" y="9.33" width="0.23" height="1.38"/><rect class="cls-1" x="17.87" y="9.53" width="0.23" height="1.17"/><rect class="cls-1" x="17.56" y="9.7" width="0.23" height="0.94"/><polygon class="cls-1" points="16.95 10.63 17.07 8.96 17.43 10.62 17.2 10.67 17.18 10.58 17.18 10.65 16.95 10.63"/><rect class="cls-1" x="17.06" y="11.45" width="0.87" height="0.23"/><rect class="cls-1" x="17.99" y="10.65" width="1.04" height="0.23"/><polygon class="cls-1" points="16.95 15.15 16.95 10.49 18.09 10.49 18.09 15.27 17.86 15.27 17.86 10.72 17.18 10.72 17.18 15.15 16.95 15.15"/><path class="cls-1" d="M7.14,18l-.27-.11L6.6,18l-.12.3.12.28.27.12.27-.12.11-.28Zm-.23-.34.41.16.18.48-.18.45-.45.2-.45-.2-.19-.45.19-.48.45-.17Z"/><polygon class="cls-1" points="13.62 19.88 13.93 18.96 14.3 19.89 14.09 19.98 13.95 19.63 13.84 19.95 13.62 19.88"/><polygon class="cls-1" points="13.49 21.09 13.49 19.82 14.38 19.82 14.38 21.09 14.14 21.09 14.14 20.05 13.72 20.05 13.72 21.09 13.49 21.09"/><rect class="cls-1" x="8.84" y="21.22" width="6.46" height="0.23"/><polygon class="cls-1" points="6.63 16.42 6.42 15.61 7.4 15.61 7.22 16.41 6.99 16.36 7.11 15.84 6.72 15.84 6.86 16.36 6.63 16.42"/><polygon class="cls-1" points="6.38 17.5 6.38 16.33 7.35 16.33 7.35 17.52 7.12 17.52 7.12 16.56 6.61 16.56 6.61 17.5 6.38 17.5"/><polygon class="cls-1" points="18.64 25.17 18.14 24.51 18.7 24.66 18.83 24.28 19.05 24.36 18.85 24.95 18.73 24.91 18.82 25.03 18.64 25.17"/><polygon class="cls-1" points="17.32 15.16 18.89 15.25 18.87 15.48 17.3 15.39 17.32 15.16"/><polygon class="cls-1" points="15.77 15.04 17.45 15.04 17.45 25.05 17.22 25.05 17.22 15.27 15.77 15.27 15.77 15.04"/><rect class="cls-1" x="15.84" y="15.19" width="0.23" height="10.84"/><rect class="cls-1" x="15.09" y="15.41" width="0.87" height="0.23"/><rect class="cls-1" x="15.22" y="15.58" width="0.23" height="10.45"/><rect class="cls-1" x="8.84" y="20.97" width="6.42" height="0.23"/><polygon class="cls-1" points="7.93 20.38 8.09 19.66 8.58 19.46 8.75 20.57 8.52 20.61 8.39 19.79 8.29 19.83 8.15 20.43 7.93 20.38"/><polygon class="cls-1" points="8.67 26.03 8.67 20.7 4.96 20.7 4.96 28.58 4.72 28.58 4.72 20.47 8.9 20.47 8.9 26.03 8.67 26.03"/><polygon class="cls-1" points="5.95 20.41 5.95 17.38 7.85 17.38 7.85 20.41 7.62 20.41 7.62 17.61 6.18 17.61 6.18 20.41 5.95 20.41"/><polygon class="cls-1" points="5.39 28.19 5.39 20.34 8.25 20.34 8.25 26.29 8.02 26.29 8.02 20.57 5.63 20.57 5.63 28.19 5.39 28.19"/><rect class="cls-1" x="15.28" y="16.27" width="0.61" height="0.23"/><rect class="cls-1" x="22.01" y="16.21" width="0.63" height="0.23"/><rect class="cls-1" x="20.71" y="16.09" width="1.36" height="0.23"/><rect class="cls-1" x="15.93" y="16.09" width="1.31" height="0.23"/><rect class="cls-1" x="17.25" y="16.21" width="3.37" height="0.23"/><rect class="cls-1" x="6.44" y="21.7" width="0.23" height="5.65"/><rect class="cls-1" x="7" y="21.7" width="0.23" height="5.28"/><rect class="cls-1" x="7.49" y="21.7" width="0.23" height="4.91"/><rect class="cls-1" x="31.84" y="21.64" width="0.23" height="6.08"/><rect class="cls-1" x="31.35" y="22.01" width="0.23" height="5.3"/><rect class="cls-1" x="30.79" y="21.64" width="0.23" height="5.23"/><rect class="cls-1" x="30.23" y="21.64" width="0.23" height="4.93"/><rect class="cls-1" x="17.5" y="16.51" width="0.23" height="8.33"/><rect class="cls-1" x="18.06" y="16.51" width="0.23" height="8.33"/><rect class="cls-1" x="20.22" y="16.51" width="0.23" height="8.33"/><rect class="cls-1" x="19.66" y="16.51" width="0.23" height="8.33"/><rect class="cls-1" x="19.11" y="16.51" width="0.23" height="7.05"/><rect class="cls-1" x="18.61" y="16.51" width="0.23" height="6.98"/><rect class="cls-1" x="18.61" y="16.51" width="0.23" height="6.8"/><rect class="cls-1" x="19.6" y="11.88" width="0.23" height="3.19"/><rect class="cls-1" x="19.11" y="11.88" width="0.23" height="3.19"/><rect class="cls-1" x="18.61" y="11.88" width="0.23" height="3.19"/><rect class="cls-1" x="18.18" y="11.88" width="0.23" height="3.19"/><rect class="cls-1" x="17.99" y="11.52" width="2.04" height="0.23"/><polygon class="cls-1" points="21.95 15.16 21.88 14.39 21.73 14.49 21.61 15.2 21.38 15.16 21.52 14.35 22.08 13.99 22.18 15.14 21.95 15.16"/><rect class="cls-1" x="23.13" y="22.2" width="0.23" height="3.83"/><rect class="cls-1" x="23.68" y="22.2" width="0.23" height="3.83"/><rect class="cls-1" x="28.56" y="22.2" width="0.23" height="3.83"/><rect class="cls-1" x="28.01" y="22.2" width="0.23" height="3.83"/><rect class="cls-1" x="27.45" y="22.2" width="0.23" height="3.83"/><rect class="cls-1" x="26.96" y="22.2" width="0.23" height="3.83"/><rect class="cls-1" x="26.4" y="22.2" width="0.23" height="3.83"/><rect class="cls-1" x="25.85" y="22.2" width="0.23" height="3.83"/><rect class="cls-1" x="25.29" y="22.2" width="0.23" height="3.83"/><rect class="cls-1" x="24.79" y="22.2" width="0.23" height="3.83"/><rect class="cls-1" x="24.24" y="22.2" width="0.23" height="3.83"/><rect class="cls-1" x="9.22" y="22.2" width="0.23" height="3.83"/><rect class="cls-1" x="9.72" y="22.2" width="0.23" height="3.83"/><rect class="cls-1" x="14.66" y="22.2" width="0.23" height="3.83"/><rect class="cls-1" x="14.1" y="22.2" width="0.23" height="3.83"/><rect class="cls-1" x="13.55" y="22.2" width="0.23" height="3.83"/><rect class="cls-1" x="12.99" y="22.2" width="0.23" height="3.83"/><rect class="cls-1" x="12.44" y="22.2" width="0.23" height="3.83"/><rect class="cls-1" x="11.94" y="22.2" width="0.23" height="3.83"/><rect class="cls-1" x="11.39" y="22.2" width="0.23" height="3.83"/><rect class="cls-1" x="10.83" y="22.2" width="0.23" height="3.83"/><rect class="cls-1" x="10.27" y="22.2" width="0.23" height="3.83"/><rect class="cls-1" x="9.22" y="22.2" width="0.23" height="3.83"/><rect class="cls-1" x="9.72" y="22.2" width="0.23" height="3.83"/><rect class="cls-1" x="14.66" y="22.2" width="0.23" height="3.83"/><rect class="cls-1" x="14.1" y="22.2" width="0.23" height="3.83"/><rect class="cls-1" x="13.55" y="22.2" width="0.23" height="3.83"/><rect class="cls-1" x="12.99" y="22.2" width="0.23" height="3.83"/><rect class="cls-1" x="12.44" y="22.2" width="0.23" height="3.83"/><rect class="cls-1" x="11.94" y="22.2" width="0.23" height="3.83"/><rect class="cls-1" x="11.39" y="22.2" width="0.23" height="3.83"/><rect class="cls-1" x="10.83" y="22.2" width="0.23" height="3.83"/><rect class="cls-1" x="21.95" y="15.22" width="0.23" height="10.88"/><rect class="cls-1" x="10.27" y="22.2" width="0.23" height="3.83"/><rect class="cls-1" x="22.67" y="21.83" width="6.51" height="0.23"/><rect class="cls-1" x="29.19" y="21.09" width="3.94" height="0.23"/><polygon class="cls-1" points="19.82 6.49 19.21 6.38 19.25 6.15 19.87 6.26 19.82 6.49"/><polygon class="cls-1" points="20.1 7.53 19.59 7.24 18.98 7.18 19 6.95 19.66 7.02 20.21 7.33 20.1 7.53"/><path class="cls-1" d="M20.34,9.94l-.47-.27-.47-.15L19,9.5V9.27a2.31,2.31,0,0,1,1.47.47Z"/><polygon class="cls-1" points="20.65 15.46 18.97 15.48 18.97 15.25 20.65 15.22 20.65 15.46"/><rect class="cls-1" x="20.67" y="15.1" width="1.53" height="0.23"/><rect class="cls-1" x="22.04" y="15.47" width="0.83" height="0.23"/><path class="cls-1" d="M20.34,9.82l-.47-.27-.47-.13L19,9.37l0-.23a2.78,2.78,0,0,1,1.47.47Z"/><polygon class="cls-1" points="20.1 7.47 19.59 7.21 18.98 7.14 19 6.91 19.66 6.98 20.21 7.26 20.1 7.47"/><polygon class="cls-1" points="19.4 5.54 19.32 5.87 19.09 5.81 19.18 5.49 19.4 5.54"/><rect class="cls-1" x="19.27" y="5.98" width="0.55" height="0.23" transform="translate(-0.19 11.56) rotate(-32.79)"/><polygon class="cls-1" points="19.01 0.46 19.05 0.45 18.91 0.09 19.13 0 19.36 0.6 19.07 0.68 19.01 0.46"/><polygon class="cls-1" points="19.58 0.23 19.42 0.79 19.08 0.95 18.98 0.74 19.23 0.62 19.36 0.17 19.58 0.23"/><polygon class="cls-1" points="19.16 23.89 19.16 25.04 18.75 25.04 18.75 23.74 19.16 23.79 19.16 23.89"/><polygon class="cls-1" points="19.19 5.39 19.48 4.9 19.18 4.75 18.98 1.09 19.38 0.7 19.32 0.21 19.55 0.18 19.62 0.79 19.22 1.18 19.4 4.6 19.81 4.81 19.39 5.51 19.19 5.39"/><rect class="cls-1" x="19.38" y="5.57" width="0.23" height="0.59" transform="translate(8.57 23.04) rotate(-74.28)"/><polygon class="cls-1" points="19.73 7.18 19.73 6.45 19.25 6.35 19.29 6.13 19.96 6.26 19.96 7.18 19.73 7.18"/><rect class="cls-1" x="19.11" y="7.08" width="0.23" height="2.2"/><rect class="cls-1" x="19.6" y="7.13" width="0.23" height="2.27"/><rect class="cls-1" x="19.91" y="7.4" width="0.23" height="2.13"/><rect class="cls-1" x="19.29" y="9.33" width="0.23" height="1.38"/><rect class="cls-1" x="19.91" y="9.53" width="0.23" height="1.17"/><rect class="cls-1" x="20.16" y="9.7" width="0.23" height="0.94"/><polygon class="cls-1" points="20.78 10.65 20.77 10.58 20.75 10.67 20.53 10.62 20.89 8.96 21.01 10.63 20.78 10.65"/><rect class="cls-1" x="20.03" y="11.45" width="0.87" height="0.23"/><rect class="cls-1" x="18.99" y="10.65" width="1.04" height="0.23"/><polygon class="cls-1" points="20.78 15.15 20.78 10.72 20.1 10.72 20.1 15.27 19.87 15.27 19.87 10.49 21.01 10.49 21.01 15.15 20.78 15.15"/><path class="cls-1" d="M30.69,17.78l.4-.15.45.17.18.48-.18.45-.45.2-.45-.2-.18-.45.18-.48Zm.4.09-.27.11-.11.3.11.28.27.12.27-.12.12-.28-.12-.3Z"/><polygon class="cls-1" points="24.12 19.95 24.01 19.63 23.87 19.98 23.66 19.89 24.03 18.96 24.34 19.88 24.12 19.95"/><polygon class="cls-1" points="24.24 21.09 24.24 20.05 23.81 20.05 23.81 21.09 23.58 21.09 23.58 19.82 24.47 19.82 24.47 21.09 24.24 21.09"/><rect class="cls-1" x="22.65" y="21.22" width="6.46" height="0.23"/><polygon class="cls-1" points="31.16 16.36 31.3 15.84 30.91 15.84 31.03 16.36 30.8 16.41 30.62 15.61 31.59 15.61 31.39 16.42 31.16 16.36"/><polygon class="cls-1" points="31.34 17.5 31.34 16.56 30.84 16.56 30.84 17.52 30.6 17.52 30.6 16.33 31.58 16.33 31.58 17.5 31.34 17.5"/><polygon class="cls-1" points="19.14 25.03 19.23 24.92 19.13 24.95 18.92 24.36 19.14 24.28 19.28 24.66 19.86 24.51 19.32 25.18 19.14 25.03"/><polygon class="cls-1" points="20.65 15.39 19.09 15.48 19.07 15.25 20.64 15.16 20.65 15.39"/><polygon class="cls-1" points="22.25 15.27 20.8 15.27 20.8 25.05 20.57 25.05 20.57 15.04 22.25 15.04 22.25 15.27"/><rect class="cls-1" x="22.06" y="15.41" width="0.87" height="0.23"/><rect class="cls-1" x="22.57" y="15.58" width="0.23" height="10.45"/><rect class="cls-1" x="22.69" y="20.97" width="6.42" height="0.23"/><polygon class="cls-1" points="32.77 20.61 32.62 19.75 32.45 19.81 32.38 19.59 32.8 19.45 33 20.57 32.77 20.61"/><polygon class="cls-1" points="29.86 20.43 29.73 19.83 29.63 19.79 29.5 20.61 29.27 20.57 29.44 19.46 29.93 19.66 30.09 20.38 29.86 20.43"/><polygon class="cls-1" points="29.06 26.03 29.06 20.47 33.23 20.47 33.23 28.58 33 28.58 33 20.7 29.29 20.7 29.29 26.03 29.06 26.03"/><polygon class="cls-1" points="31.84 20.41 31.84 17.61 30.38 17.61 30.38 20.41 30.14 20.41 30.14 17.38 32.07 17.38 32.07 20.41 31.84 20.41"/><polygon class="cls-1" points="32.21 20.39 32.3 19.7 32.53 19.73 32.44 20.42 32.21 20.39"/><polygon class="cls-1" points="32.4 28.19 32.4 20.57 30 20.57 30 26.29 29.77 26.29 29.77 20.34 32.63 20.34 32.63 28.19 32.4 28.19"/><rect class="cls-1" x="8.78" y="21.83" width="6.51" height="0.23"/><rect class="cls-1" x="4.83" y="21.09" width="3.94" height="0.23"/><polygon class="cls-1" points="18.09 6.26 18.71 6.15 18.75 6.38 18.13 6.49 18.09 6.26"/><polygon class="cls-1" points="17.81 7.33 18.36 7.02 19.02 6.95 19.05 7.18 18.43 7.24 17.92 7.53 17.81 7.33"/><path class="cls-1" d="M17.5,9.74A2.31,2.31,0,0,1,19,9.27V9.5l-.43,0-.46.15-.47.27Z"/><polygon class="cls-1" points="17.31 15.22 18.99 15.25 18.98 15.48 17.31 15.46 17.31 15.22"/><rect class="cls-1" x="15.77" y="15.1" width="1.53" height="0.23"/><rect class="cls-1" x="15.09" y="15.47" width="0.83" height="0.23"/><polygon class="cls-1" points="15.77 15.14 15.88 13.99 16.44 14.35 16.58 15.16 16.35 15.2 16.23 14.49 16.07 14.39 16 15.16 15.77 15.14"/><path class="cls-1" d="M17.5,9.61A2.75,2.75,0,0,1,19,9.14l0,.23-.43.05-.47.13-.47.27Z"/><polygon class="cls-1" points="17.81 7.26 18.36 6.98 19.02 6.91 19.05 7.14 18.43 7.21 17.92 7.47 17.81 7.26"/><rect class="cls-1" x="18.6" y="5.51" width="0.23" height="0.33" transform="translate(-0.83 5.04) rotate(-15)"/><polygon class="cls-1" points="18.3 5.85 18.77 6.15 18.64 6.34 18.17 6.04 18.3 5.85"/><polygon class="cls-1" points="18.89 0.68 18.59 0.6 18.83 0 19.05 0.09 18.9 0.45 18.95 0.46 18.89 0.68"/><polygon class="cls-1" points="18.66 0.17 18.79 0.62 19.02 0.74 18.92 0.95 18.6 0.79 18.43 0.23 18.66 0.17"/><polygon class="cls-1" points="18.8 25.04 18.8 23.79 19.2 23.74 19.2 25.04 18.8 25.04"/><path class="cls-1" d="M18.57,5.51l-.45-.7.44-.21.16-3.42L18.34.79,18.4.18l.24,0L18.58.7l.38.39-.18,3.66-.32.15.31.49Z"/><rect class="cls-1" x="18.23" y="5.75" width="0.59" height="0.23" transform="translate(-0.9 5.22) rotate(-15.66)"/><polygon class="cls-1" points="18 7.18 18 6.26 18.66 6.13 18.71 6.35 18.23 6.45 18.23 7.18 18 7.18"/><rect class="cls-1" x="18.61" y="7.08" width="0.23" height="2.2"/><rect class="cls-1" x="18.18" y="7.13" width="0.23" height="2.27"/><rect class="cls-1" x="17.81" y="7.4" width="0.23" height="2.13"/><rect class="cls-1" x="18.49" y="9.33" width="0.23" height="1.38"/><rect class="cls-1" x="17.87" y="9.53" width="0.23" height="1.17"/><rect class="cls-1" x="17.56" y="9.7" width="0.23" height="0.94"/><polygon class="cls-1" points="16.95 10.63 17.07 8.96 17.43 10.62 17.2 10.67 17.18 10.58 17.18 10.65 16.95 10.63"/><rect class="cls-1" x="17.06" y="11.45" width="0.87" height="0.23"/><rect class="cls-1" x="17.99" y="10.65" width="1.04" height="0.23"/><polygon class="cls-1" points="16.95 15.15 16.95 10.49 18.09 10.49 18.09 15.27 17.86 15.27 17.86 10.72 17.18 10.72 17.18 15.15 16.95 15.15"/><path class="cls-1" d="M7.14,18l-.27-.11L6.6,18l-.12.3.12.28.27.12.27-.12.11-.28Zm-.23-.34.41.16.18.48-.18.45-.45.2-.45-.2-.19-.45.19-.48.45-.17Z"/><polygon class="cls-1" points="13.62 19.88 13.93 18.96 14.3 19.89 14.09 19.98 13.95 19.63 13.84 19.95 13.62 19.88"/><polygon class="cls-1" points="13.49 21.09 13.49 19.82 14.38 19.82 14.38 21.09 14.14 21.09 14.14 20.05 13.72 20.05 13.72 21.09 13.49 21.09"/><rect class="cls-1" x="8.84" y="21.22" width="6.46" height="0.23"/><polygon class="cls-1" points="6.63 16.42 6.42 15.61 7.4 15.61 7.22 16.41 6.99 16.36 7.11 15.84 6.72 15.84 6.86 16.36 6.63 16.42"/><polygon class="cls-1" points="6.38 17.5 6.38 16.33 7.35 16.33 7.35 17.52 7.12 17.52 7.12 16.56 6.61 16.56 6.61 17.5 6.38 17.5"/><polygon class="cls-1" points="18.64 25.17 18.14 24.51 18.7 24.66 18.83 24.28 19.05 24.36 18.85 24.95 18.73 24.91 18.82 25.03 18.64 25.17"/><polygon class="cls-1" points="17.32 15.16 18.89 15.25 18.87 15.48 17.3 15.39 17.32 15.16"/><polygon class="cls-1" points="15.77 15.04 17.45 15.04 17.45 25.05 17.22 25.05 17.22 15.27 15.77 15.27 15.77 15.04"/><rect class="cls-1" x="15.84" y="15.19" width="0.23" height="10.84"/><rect class="cls-1" x="15.09" y="15.41" width="0.87" height="0.23"/><rect class="cls-1" x="15.22" y="15.58" width="0.23" height="10.45"/><rect class="cls-1" x="8.84" y="20.97" width="6.42" height="0.23"/><polygon class="cls-1" points="7.93 20.38 8.09 19.66 8.58 19.46 8.75 20.57 8.52 20.61 8.39 19.79 8.29 19.83 8.15 20.43 7.93 20.38"/><polygon class="cls-1" points="8.67 26.03 8.67 20.7 4.96 20.7 4.96 28.58 4.72 28.58 4.72 20.47 8.9 20.47 8.9 26.03 8.67 26.03"/><polygon class="cls-1" points="5.95 20.41 5.95 17.38 7.85 17.38 7.85 20.41 7.62 20.41 7.62 17.61 6.18 17.61 6.18 20.41 5.95 20.41"/><polygon class="cls-1" points="5.39 28.19 5.39 20.34 8.25 20.34 8.25 26.29 8.02 26.29 8.02 20.57 5.63 20.57 5.63 28.19 5.39 28.19"/><rect class="cls-1" x="22.26" y="16.76" width="0.23" height="9.11"/><rect class="cls-1" x="6.44" y="21.7" width="0.23" height="5.6"/><rect class="cls-1" x="7" y="21.7" width="0.23" height="5.28"/><rect class="cls-1" x="7.49" y="21.7" width="0.23" height="4.55"/><rect class="cls-1" x="31.84" y="21.64" width="0.23" height="5.69"/><rect class="cls-1" x="31.35" y="21.64" width="0.23" height="5.37"/><rect class="cls-1" x="30.79" y="21.64" width="0.23" height="4.93"/><rect class="cls-1" x="30.23" y="21.64" width="0.23" height="4.66"/><rect class="cls-1" x="17.5" y="16.51" width="0.23" height="8.33"/><rect class="cls-1" x="18.06" y="16.51" width="0.23" height="8.33"/><rect class="cls-1" x="20.22" y="16.51" width="0.23" height="8.33"/><rect class="cls-1" x="19.66" y="16.51" width="0.23" height="8.33"/><rect class="cls-1" x="19.6" y="11.88" width="0.23" height="3.19"/><rect class="cls-1" x="19.11" y="11.88" width="0.23" height="3.19"/><rect class="cls-1" x="18.61" y="11.88" width="0.23" height="3.19"/><rect class="cls-1" x="18.18" y="11.88" width="0.23" height="3.19"/><rect class="cls-1" x="17.99" y="11.52" width="2.04" height="0.23"/><polygon class="cls-1" points="21.95 15.16 21.88 14.39 21.73 14.49 21.61 15.2 21.38 15.16 21.52 14.35 22.08 13.99 22.18 15.14 21.95 15.16"/><rect class="cls-1" x="23.13" y="22.2" width="0.23" height="3.83"/><rect class="cls-1" x="23.68" y="22.2" width="0.23" height="3.83"/><rect class="cls-1" x="28.56" y="22.2" width="0.23" height="3.83"/><rect class="cls-1" x="28.01" y="22.2" width="0.23" height="3.83"/><rect class="cls-1" x="27.45" y="22.2" width="0.23" height="3.83"/><rect class="cls-1" x="26.96" y="22.2" width="0.23" height="3.83"/><rect class="cls-1" x="26.4" y="22.2" width="0.23" height="3.83"/><rect class="cls-1" x="25.85" y="22.2" width="0.23" height="3.83"/><rect class="cls-1" x="25.29" y="22.2" width="0.23" height="3.83"/><rect class="cls-1" x="24.79" y="22.2" width="0.23" height="3.83"/><rect class="cls-1" x="24.24" y="22.2" width="0.23" height="3.83"/><rect class="cls-1" x="9.22" y="22.2" width="0.23" height="3.83"/><rect class="cls-1" x="9.72" y="22.2" width="0.23" height="3.83"/><rect class="cls-1" x="14.66" y="22.2" width="0.23" height="3.83"/><rect class="cls-1" x="14.1" y="22.2" width="0.23" height="3.83"/><rect class="cls-1" x="13.55" y="22.2" width="0.23" height="3.83"/><rect class="cls-1" x="12.99" y="22.2" width="0.23" height="3.83"/><rect class="cls-1" x="12.44" y="22.2" width="0.23" height="3.83"/><rect class="cls-1" x="11.94" y="22.2" width="0.23" height="3.83"/><rect class="cls-1" x="11.39" y="22.2" width="0.23" height="3.83"/><rect class="cls-1" x="10.83" y="22.2" width="0.23" height="3.83"/><rect class="cls-1" x="10.27" y="22.2" width="0.23" height="3.83"/><rect class="cls-1" x="9.22" y="22.2" width="0.23" height="3.83"/><rect class="cls-1" x="9.72" y="22.2" width="0.23" height="3.83"/><rect class="cls-1" x="14.66" y="22.2" width="0.23" height="3.83"/><rect class="cls-1" x="14.1" y="22.2" width="0.23" height="3.83"/><rect class="cls-1" x="13.55" y="22.2" width="0.23" height="3.83"/><rect class="cls-1" x="12.99" y="22.2" width="0.23" height="3.83"/><rect class="cls-1" x="12.44" y="22.2" width="0.23" height="3.83"/><rect class="cls-1" x="11.94" y="22.2" width="0.23" height="3.83"/><rect class="cls-1" x="11.39" y="22.2" width="0.23" height="3.83"/><rect class="cls-1" x="10.83" y="22.2" width="0.23" height="3.83"/><rect class="cls-1" x="21.95" y="15.22" width="0.23" height="10.88"/><rect class="cls-1" x="10.27" y="22.2" width="0.23" height="3.83"/><rect class="cls-1" x="22.67" y="21.83" width="6.51" height="0.23"/><rect class="cls-1" x="29.19" y="21.09" width="3.94" height="0.23"/><polygon class="cls-1" points="19.82 6.49 19.21 6.38 19.25 6.15 19.87 6.26 19.82 6.49"/><polygon class="cls-1" points="20.1 7.53 19.59 7.24 18.98 7.18 19 6.95 19.66 7.02 20.21 7.33 20.1 7.53"/><path class="cls-1" d="M20.34,9.94l-.47-.27-.47-.15L19,9.5V9.27a2.31,2.31,0,0,1,1.47.47Z"/><polygon class="cls-1" points="20.65 15.46 18.97 15.48 18.97 15.25 20.65 15.22 20.65 15.46"/><rect class="cls-1" x="20.67" y="15.1" width="1.53" height="0.23"/><rect class="cls-1" x="22.04" y="15.47" width="0.83" height="0.23"/><path class="cls-1" d="M20.34,9.82l-.47-.27-.47-.13L19,9.37l0-.23a2.78,2.78,0,0,1,1.47.47Z"/><polygon class="cls-1" points="20.1 7.47 19.59 7.21 18.98 7.14 19 6.91 19.66 6.98 20.21 7.26 20.1 7.47"/><polygon class="cls-1" points="19.4 5.54 19.32 5.87 19.09 5.81 19.18 5.49 19.4 5.54"/><rect class="cls-1" x="19.27" y="5.98" width="0.55" height="0.23" transform="translate(-0.19 11.56) rotate(-32.79)"/><polygon class="cls-1" points="19.01 0.46 19.05 0.45 18.91 0.09 19.13 0 19.36 0.6 19.07 0.68 19.01 0.46"/><polygon class="cls-1" points="19.58 0.23 19.42 0.79 19.08 0.95 18.98 0.74 19.23 0.62 19.36 0.17 19.58 0.23"/><polygon class="cls-1" points="19.16 23.89 19.16 25.04 18.75 25.04 18.75 23.74 19.16 23.79 19.16 23.89"/><polygon class="cls-1" points="19.19 5.39 19.48 4.9 19.18 4.75 18.98 1.09 19.38 0.7 19.32 0.21 19.55 0.18 19.62 0.79 19.22 1.18 19.4 4.6 19.81 4.81 19.39 5.51 19.19 5.39"/><rect class="cls-1" x="19.38" y="5.57" width="0.23" height="0.59" transform="translate(8.57 23.04) rotate(-74.28)"/><polygon class="cls-1" points="19.73 7.18 19.73 6.45 19.25 6.35 19.29 6.13 19.96 6.26 19.96 7.18 19.73 7.18"/><rect class="cls-1" x="19.11" y="7.08" width="0.23" height="2.2"/><rect class="cls-1" x="19.6" y="7.13" width="0.23" height="2.27"/><rect class="cls-1" x="19.91" y="7.4" width="0.23" height="2.13"/><rect class="cls-1" x="19.29" y="9.33" width="0.23" height="1.38"/><rect class="cls-1" x="19.91" y="9.53" width="0.23" height="1.17"/><rect class="cls-1" x="20.16" y="9.7" width="0.23" height="0.94"/><polygon class="cls-1" points="20.78 10.65 20.77 10.58 20.75 10.67 20.53 10.62 20.89 8.96 21.01 10.63 20.78 10.65"/><rect class="cls-1" x="20.03" y="11.45" width="0.87" height="0.23"/><rect class="cls-1" x="18.99" y="10.65" width="1.04" height="0.23"/><polygon class="cls-1" points="20.78 15.15 20.78 10.72 20.1 10.72 20.1 15.27 19.87 15.27 19.87 10.49 21.01 10.49 21.01 15.15 20.78 15.15"/><path class="cls-1" d="M30.69,17.78l.4-.15.45.17.18.48-.18.45-.45.2-.45-.2-.18-.45.18-.48Zm.4.09-.27.11-.11.3.11.28.27.12.27-.12.12-.28-.12-.3Z"/><polygon class="cls-1" points="24.12 19.95 24.01 19.63 23.87 19.98 23.66 19.89 24.03 18.96 24.34 19.88 24.12 19.95"/><polygon class="cls-1" points="24.24 21.09 24.24 20.05 23.81 20.05 23.81 21.09 23.58 21.09 23.58 19.82 24.47 19.82 24.47 21.09 24.24 21.09"/><rect class="cls-1" x="22.65" y="21.22" width="6.46" height="0.23"/><polygon class="cls-1" points="31.16 16.36 31.3 15.84 30.91 15.84 31.03 16.36 30.8 16.41 30.62 15.61 31.59 15.61 31.39 16.42 31.16 16.36"/><polygon class="cls-1" points="31.34 17.5 31.34 16.56 30.84 16.56 30.84 17.52 30.6 17.52 30.6 16.33 31.58 16.33 31.58 17.5 31.34 17.5"/><polygon class="cls-1" points="19.14 25.03 19.23 24.92 19.13 24.95 18.92 24.36 19.14 24.28 19.28 24.66 19.86 24.51 19.32 25.18 19.14 25.03"/><polygon class="cls-1" points="20.65 15.39 19.09 15.48 19.07 15.25 20.64 15.16 20.65 15.39"/><polygon class="cls-1" points="22.25 15.27 20.8 15.27 20.8 25.05 20.57 25.05 20.57 15.04 22.25 15.04 22.25 15.27"/><rect class="cls-1" x="22.06" y="15.41" width="0.87" height="0.23"/><rect class="cls-1" x="22.57" y="15.58" width="0.23" height="10.45"/><rect class="cls-1" x="22.69" y="20.97" width="6.42" height="0.23"/><polygon class="cls-1" points="32.77 20.61 32.62 19.75 32.45 19.81 32.38 19.59 32.8 19.45 33 20.57 32.77 20.61"/><polygon class="cls-1" points="29.86 20.43 29.73 19.83 29.63 19.79 29.5 20.61 29.27 20.57 29.44 19.46 29.93 19.66 30.09 20.38 29.86 20.43"/><polygon class="cls-1" points="29.06 26.03 29.06 20.47 33.23 20.47 33.23 28.58 33 28.58 33 20.7 29.29 20.7 29.29 26.03 29.06 26.03"/><polygon class="cls-1" points="31.84 20.41 31.84 17.61 30.38 17.61 30.38 20.41 30.14 20.41 30.14 17.38 32.07 17.38 32.07 20.41 31.84 20.41"/><polygon class="cls-1" points="32.21 20.39 32.3 19.7 32.53 19.73 32.44 20.42 32.21 20.39"/><polygon class="cls-1" points="32.4 28.19 32.4 20.57 30 20.57 30 26.29 29.77 26.29 29.77 20.34 32.63 20.34 32.63 28.19 32.4 28.19"/><rect class="cls-1" x="8.78" y="21.83" width="6.51" height="0.23"/><rect class="cls-1" x="4.83" y="21.09" width="3.94" height="0.23"/><polygon class="cls-1" points="18.09 6.26 18.71 6.15 18.75 6.38 18.13 6.49 18.09 6.26"/><polygon class="cls-1" points="17.81 7.33 18.36 7.02 19.02 6.95 19.05 7.18 18.43 7.24 17.92 7.53 17.81 7.33"/><path class="cls-1" d="M17.5,9.74A2.31,2.31,0,0,1,19,9.27V9.5l-.43,0-.46.15-.47.27Z"/><polygon class="cls-1" points="17.31 15.22 18.99 15.25 18.98 15.48 17.31 15.46 17.31 15.22"/><rect class="cls-1" x="15.77" y="15.1" width="1.53" height="0.23"/><rect class="cls-1" x="15.09" y="15.47" width="0.83" height="0.23"/><polygon class="cls-1" points="15.77 15.14 15.88 13.99 16.44 14.35 16.58 15.16 16.35 15.2 16.23 14.49 16.07 14.39 16 15.16 15.77 15.14"/><path class="cls-1" d="M17.5,9.61A2.75,2.75,0,0,1,19,9.14l0,.23-.43.05-.47.13-.47.27Z"/><polygon class="cls-1" points="17.81 7.26 18.36 6.98 19.02 6.91 19.05 7.14 18.43 7.21 17.92 7.47 17.81 7.26"/><rect class="cls-1" x="18.6" y="5.51" width="0.23" height="0.33" transform="translate(-0.83 5.04) rotate(-15)"/><polygon class="cls-1" points="18.3 5.85 18.77 6.15 18.64 6.34 18.17 6.04 18.3 5.85"/><polygon class="cls-1" points="18.89 0.68 18.59 0.6 18.83 0 19.05 0.09 18.9 0.45 18.95 0.46 18.89 0.68"/><polygon class="cls-1" points="18.92 0.95 18.6 0.79 18.43 0.23 18.66 0.17 18.79 0.62 19.02 0.74 18.92 0.95"/><polygon class="cls-1" points="18.8 25.04 18.8 23.79 19.2 23.74 19.2 25.04 18.8 25.04"/><path class="cls-1" d="M18.64.21,18.58.7l.38.39-.18,3.66-.32.15.31.49-.2.12-.45-.7.44-.21.16-3.42L18.34.79l.07-.61Z"/><rect class="cls-1" x="18.23" y="5.75" width="0.59" height="0.23" transform="translate(-0.9 5.22) rotate(-15.66)"/><polygon class="cls-1" points="18.71 6.35 18.23 6.45 18.23 7.18 18 7.18 18 6.26 18.66 6.13 18.71 6.35"/><rect class="cls-1" x="18.61" y="7.08" width="0.23" height="2.2"/><rect class="cls-1" x="18.18" y="7.13" width="0.23" height="2.27"/><rect class="cls-1" x="17.81" y="7.4" width="0.23" height="2.13"/><rect class="cls-1" x="18.49" y="9.33" width="0.23" height="1.38"/><rect class="cls-1" x="17.87" y="9.53" width="0.23" height="1.17"/><rect class="cls-1" x="17.56" y="9.7" width="0.23" height="0.94"/><polygon class="cls-1" points="16.95 10.63 17.07 8.96 17.43 10.62 17.2 10.67 17.18 10.58 17.18 10.65 16.95 10.63"/><rect class="cls-1" x="17.06" y="11.45" width="0.87" height="0.23"/><rect class="cls-1" x="17.99" y="10.65" width="1.04" height="0.23"/><polygon class="cls-1" points="16.95 15.15 16.95 10.49 18.09 10.49 18.09 15.27 17.86 15.27 17.86 10.72 17.18 10.72 17.18 15.15 16.95 15.15"/><path class="cls-1" d="M7.14,18l-.27-.11L6.6,18l-.12.3.12.28.27.12.27-.12.11-.28Zm-.23-.34.41.16.18.48-.18.45-.45.2-.45-.2-.19-.45.19-.48.45-.17Z"/><polygon class="cls-1" points="13.62 19.88 13.93 18.96 14.3 19.89 14.09 19.98 13.95 19.63 13.84 19.95 13.62 19.88"/><polygon class="cls-1" points="13.49 21.09 13.49 19.82 14.38 19.82 14.38 21.09 14.14 21.09 14.14 20.05 13.72 20.05 13.72 21.09 13.49 21.09"/><rect class="cls-1" x="8.84" y="21.22" width="6.46" height="0.23"/><polygon class="cls-1" points="6.63 16.42 6.42 15.61 7.4 15.61 7.22 16.41 6.99 16.36 7.11 15.84 6.72 15.84 6.86 16.36 6.63 16.42"/><polygon class="cls-1" points="6.38 17.5 6.38 16.33 7.35 16.33 7.35 17.52 7.12 17.52 7.12 16.56 6.61 16.56 6.61 17.5 6.38 17.5"/><polygon class="cls-1" points="18.64 25.17 18.14 24.51 18.7 24.66 18.83 24.28 19.05 24.36 18.85 24.95 18.73 24.91 18.82 25.03 18.64 25.17"/><polygon class="cls-1" points="17.32 15.16 18.89 15.25 18.87 15.48 17.3 15.39 17.32 15.16"/><polygon class="cls-1" points="15.77 15.04 17.45 15.04 17.45 25.05 17.22 25.05 17.22 15.27 15.77 15.27 15.77 15.04"/><rect class="cls-1" x="15.84" y="15.19" width="0.23" height="10.84"/><path class="cls-1" d="M4.73,28.45v-8H5l.17-1,.34,0,.18.82H6V17.37h.43v-1l.22-.05-.18-.69h1l-.16.71.12.05v1l.49,0,0,3,.05,0,.15-.68.49-.19.15,1h.18l0,.43,0,.07,4.5-.12.08-.94c.14-.29.3-.58.45-.87l.44.87V21l.83-.1-.11-5.1-.24-.37.94.07L15.87,14l.57.37.12.71L17,15V8.69l.47,1.84h.15l-.08-1.1.22-.19V7.15l.21-.21-.07-.71L18.23,6l-.29-.28.57-.12L18,4.77l.48-.28.22-3.31L18.38.83l.16-.17.42.43c-.09,1.18-.16,2.36-.24,3.54l-.38.23.52.94-.45.1.22.22-.54.25.07.66-.23.22v2.1l-.21.18.09,1.23h-.58l-.06-.21v4.72l-.82,0-.13-.81-.15-.09L16,15.71l-.71-.05,0,0c0,1.79.07,3.59.11,5.38l-1.3.15V20l-.2-.42-.22.42-.09,1.11-4.85.12L8.63,21l0-.25H8.54l-.15-.92-.1,0-.15.64-.48.36,0-3.22-.5,0V16.52L7,16.46l.14-.62H6.72l.17.64-.28.06v1.08H6.18v2.91H5.54l-.15-.71-.15.9H5v7.75Z"/><rect class="cls-1" x="15.22" y="15.58" width="0.23" height="10.45"/><rect class="cls-1" x="8.84" y="20.97" width="6.42" height="0.23"/><polygon class="cls-1" points="7.93 20.38 8.09 19.66 8.58 19.46 8.75 20.57 8.52 20.61 8.39 19.79 8.29 19.83 8.15 20.43 7.93 20.38"/><polygon class="cls-1" points="8.67 26.03 8.67 20.7 4.96 20.7 4.96 28.58 4.72 28.58 4.72 20.47 8.9 20.47 8.9 26.03 8.67 26.03"/><polygon class="cls-1" points="5.95 20.41 5.95 17.38 7.85 17.38 7.85 20.41 7.62 20.41 7.62 17.61 6.18 17.61 6.18 20.41 5.95 20.41"/><polygon class="cls-1" points="5.39 28.19 5.39 20.34 8.25 20.34 8.25 26.29 8.02 26.29 8.02 20.57 5.63 20.57 5.63 28.19 5.39 28.19"/><polygon class="cls-1" points="21.49 25.16 21.28 25.53 21.08 25.41 21.29 25.05 21.49 25.16"/><rect class="cls-1" x="18.98" y="24.99" width="2.42" height="0.23"/><polygon class="cls-1" points="21.58 26.03 21.58 25.57 18.98 25.57 18.98 25.34 21.81 25.34 21.81 26.03 21.58 26.03"/><rect class="cls-1" x="16.62" y="25.08" width="0.23" height="0.42" transform="translate(-10.38 11.71) rotate(-29.91)"/><rect class="cls-1" x="16.63" y="24.99" width="2.41" height="0.23"/><polygon class="cls-1" points="16.21 26.03 16.21 25.34 19.03 25.34 19.03 25.57 16.44 25.57 16.44 26.03 16.21 26.03"/><path class="cls-1" d="M31.82,32.16a19,19,0,0,1,3.84,0,4.14,4.14,0,0,1,2.21,0l-.08.22-.4-.13h-.68a6,6,0,0,1-2.31,0H33.24l-1.4.12Z"/><path class="cls-1" d="M25.85,31.72l2.09.14H29.5a17.67,17.67,0,0,1,3.78,0h1.2a5.12,5.12,0,0,1,2.24,0h.76l.36-.13.08.22-.4.14A9.36,9.36,0,0,1,35.71,32a15.82,15.82,0,0,1-3.89,0,44.35,44.35,0,0,1-6,0Z"/><path class="cls-1" d="M19,32.16a62.61,62.61,0,0,1,6.85,0c2.14-.1,3.91-.1,6.05,0v.23l-2.14-.09H27.9c-1.91.08-3.29,0-5.23,0h-2L19,32.39Z"/><path class="cls-1" d="M19,31.72l1.73.12h2.14l2.94-.12V32A65,65,0,0,1,19,32Z"/><polygon class="cls-1" points="31.93 32.33 23.79 45.13 35.56 32.19 35.73 32.35 22.15 47.28 31.73 32.21 31.93 32.33"/><polygon class="cls-1" points="19.09 32.26 20.53 45.92 31.75 32.17 31.93 32.32 20.35 46.5 18.86 32.28 19.09 32.26"/><rect class="cls-1" x="12.92" y="40.99" width="18.95" height="0.23" transform="translate(-24.02 47.19) rotate(-68.89)"/><polygon class="cls-1" points="35.57 31.91 32.48 28.19 32.66 28.05 35.75 31.77 35.57 31.91"/><path class="cls-1" d="M26.28,26.1l-1.86,2,7.29,3.58.69-3.47Zm-.61,5.78L24.09,28.1c.7-.76,1.41-1.52,2.12-2.27L32.67,28l-.79,4-7.43-3.65,1.43,3.43Z"/><polygon class="cls-1" points="19.02 25.86 24.47 28.1 19.05 31.94 18.91 31.75 24 28.16 18.93 26.07 19.02 25.86"/><path class="cls-1" d="M19,25.85H29.57L38,31.79v.5L19.06,50l-.16-.17L37.73,32.19v-.28L29.5,26.08H19Z"/><path class="cls-1" d="M6.12,32.39l-1.4-.12H3.56a6,6,0,0,1-2.31,0H.57l-.41.13-.07-.22a4.11,4.11,0,0,1,2.2,0,19.05,19.05,0,0,1,3.85,0Z"/><path class="cls-1" d="M12.19,32a44.35,44.35,0,0,1-6,0,15.82,15.82,0,0,1-3.89,0,9.36,9.36,0,0,1-1.81.13L.1,32l.08-.22.36.13H1.3a5.13,5.13,0,0,1,2.24,0h1.2a17.39,17.39,0,0,1,3.75,0h1.59l2.09-.14Z"/><path class="cls-1" d="M19,32.39l-1.73-.12H15.29c-1.94.07-3.33.11-5.23,0H8.23l-2.13.09v-.23c2.14-.1,3.9-.1,6.05,0a62.61,62.61,0,0,1,6.85,0Z"/><path class="cls-1" d="M19,32a65,65,0,0,1-6.84,0v-.24l2.94.12h2.14L19,31.72Z"/><polygon class="cls-1" points="6.22 32.21 15.81 47.28 2.23 32.35 2.4 32.19 14.16 45.13 6.03 32.33 6.22 32.21"/><polygon class="cls-1" points="19.09 32.28 17.6 46.5 6.03 32.32 6.21 32.17 17.43 45.92 18.86 32.26 19.09 32.28"/><rect class="cls-1" x="15.45" y="31.63" width="0.23" height="18.95" transform="translate(-13.76 8.36) rotate(-21.11)"/><rect class="cls-1" x="1.42" y="29.86" width="4.84" height="0.23" transform="translate(-21.66 13.76) rotate(-50.24)"/><path class="cls-1" d="M13.54,28.09l-1.88-2L5.55,28.2l.7,3.47Zm-1.47,3.7,1.43-3.43L6.08,32c-.27-1.32-.53-2.64-.79-4l6.44-2.21,2.13,2.27-1.57,3.78Z"/><polygon class="cls-1" points="19.02 26.07 13.96 28.16 19.05 31.75 18.91 31.94 13.48 28.1 18.93 25.86 19.02 26.07"/><path class="cls-1" d="M19,26.08H8.46L.23,31.91v.28L19.06,49.83,18.9,50,0,32.29v-.5q4.19-3,8.39-5.94H19Z"/><polygon class="cls-1" points="21.49 25.16 21.28 25.53 21.08 25.41 21.29 25.05 21.49 25.16"/><rect class="cls-1" x="18.98" y="24.99" width="2.42" height="0.23"/><polygon class="cls-1" points="21.58 26.03 21.58 25.57 18.98 25.57 18.98 25.34 21.81 25.34 21.81 26.03 21.58 26.03"/><rect class="cls-1" x="16.62" y="25.08" width="0.23" height="0.42" transform="translate(-10.38 11.71) rotate(-29.91)"/><rect class="cls-1" x="16.63" y="24.99" width="2.41" height="0.23"/><polygon class="cls-1" points="16.21 26.03 16.21 25.34 19.03 25.34 19.03 25.57 16.44 25.57 16.44 26.03 16.21 26.03"/><path class="cls-1" d="M31.82,32.16a19,19,0,0,1,3.84,0,4.14,4.14,0,0,1,2.21,0l-.08.22-.4-.13h-.68a6,6,0,0,1-2.31,0H33.24l-1.4.12Z"/><path class="cls-1" d="M25.85,31.72l2.09.14H29.5a17.67,17.67,0,0,1,3.78,0h1.2a5.12,5.12,0,0,1,2.24,0h.76l.36-.13.08.22-.4.14A9.36,9.36,0,0,1,35.71,32a15.82,15.82,0,0,1-3.89,0,44.35,44.35,0,0,1-6,0Z"/><path class="cls-1" d="M19,32.16a62.61,62.61,0,0,1,6.85,0c2.14-.1,3.91-.1,6.05,0v.23l-2.14-.09H27.9c-1.91.08-3.29,0-5.23,0h-2L19,32.39Z"/><path class="cls-1" d="M19,31.72l1.73.12h2.14l2.94-.12V32A65,65,0,0,1,19,32Z"/><polygon class="cls-1" points="31.93 32.33 23.79 45.13 35.56 32.19 35.73 32.35 22.15 47.28 31.73 32.21 31.93 32.33"/><polygon class="cls-1" points="19.09 32.26 20.53 45.92 31.75 32.17 31.93 32.32 20.35 46.5 18.86 32.28 19.09 32.26"/><rect class="cls-1" x="12.92" y="40.99" width="18.95" height="0.23" transform="translate(-24.02 47.19) rotate(-68.89)"/><polygon class="cls-1" points="35.57 31.91 32.48 28.19 32.66 28.05 35.75 31.77 35.57 31.91"/><path class="cls-1" d="M26.28,26.1l-1.86,2,7.29,3.58.69-3.47Zm-.61,5.78L24.09,28.1c.7-.76,1.41-1.52,2.12-2.27L32.67,28l-.79,4-7.43-3.65,1.43,3.43Z"/><polygon class="cls-1" points="19.02 25.86 24.47 28.1 19.05 31.94 18.91 31.75 24 28.16 18.93 26.07 19.02 25.86"/><path class="cls-1" d="M19,25.85H29.57L38,31.79v.5L19.06,50l-.16-.17L37.73,32.19v-.28L29.5,26.08H19Z"/><path class="cls-1" d="M6.12,32.39l-1.4-.12H3.56a6,6,0,0,1-2.31,0H.57l-.41.13-.07-.22a4.11,4.11,0,0,1,2.2,0,19.05,19.05,0,0,1,3.85,0Z"/><path class="cls-1" d="M12.19,32a44.35,44.35,0,0,1-6,0,15.82,15.82,0,0,1-3.89,0,9.36,9.36,0,0,1-1.81.13L.1,32l.08-.22.36.13H1.3a5.13,5.13,0,0,1,2.24,0h1.2a17.39,17.39,0,0,1,3.75,0h1.59l2.09-.14Z"/><path class="cls-1" d="M19,32.39l-1.73-.12H15.29c-1.94.07-3.33.11-5.23,0H8.23l-2.13.09v-.23c2.14-.1,3.9-.1,6.05,0a62.61,62.61,0,0,1,6.85,0Z"/><path class="cls-1" d="M19,32a65,65,0,0,1-6.84,0v-.24l2.94.12h2.14L19,31.72Z"/><polygon class="cls-1" points="6.22 32.21 15.81 47.28 2.23 32.35 2.4 32.19 14.16 45.13 6.03 32.33 6.22 32.21"/><polygon class="cls-1" points="19.09 32.28 17.6 46.5 6.03 32.32 6.21 32.17 17.43 45.92 18.86 32.26 19.09 32.28"/><rect class="cls-1" x="15.45" y="31.63" width="0.23" height="18.95" transform="translate(-13.76 8.36) rotate(-21.11)"/><rect class="cls-1" x="1.42" y="29.86" width="4.84" height="0.23" transform="translate(-21.66 13.76) rotate(-50.24)"/><polygon class="cls-1" points="19.02 26.07 13.96 28.16 19.05 31.75 18.91 31.94 13.48 28.1 18.93 25.86 19.02 26.07"/><path class="cls-1" d="M19,26.08H8.46L.23,31.91v.28L19.06,49.83,18.9,50,0,32.29v-.5q4.19-3,8.39-5.94H19Z"/><polygon class="cls-1" points="21.49 25.16 21.28 25.53 21.08 25.41 21.29 25.05 21.49 25.16"/><rect class="cls-1" x="18.98" y="24.99" width="2.42" height="0.23"/><polygon class="cls-1" points="21.58 26.03 21.58 25.57 18.98 25.57 18.98 25.34 21.81 25.34 21.81 26.03 21.58 26.03"/><rect class="cls-1" x="16.62" y="25.08" width="0.23" height="0.42" transform="translate(-10.38 11.71) rotate(-29.91)"/><rect class="cls-1" x="16.63" y="24.99" width="2.41" height="0.23"/><polygon class="cls-1" points="16.21 26.03 16.21 25.34 19.03 25.34 19.03 25.57 16.44 25.57 16.44 26.03 16.21 26.03"/><path class="cls-1" d="M31.82,32.16a19,19,0,0,1,3.84,0,4.14,4.14,0,0,1,2.21,0l-.08.22-.4-.13h-.68a6,6,0,0,1-2.31,0H33.24l-1.4.12Z"/><path class="cls-1" d="M25.85,31.72l2.09.14H29.5a17.67,17.67,0,0,1,3.78,0h1.2a5.12,5.12,0,0,1,2.24,0h.76l.36-.13.08.22-.4.14A9.36,9.36,0,0,1,35.71,32a15.82,15.82,0,0,1-3.89,0,44.35,44.35,0,0,1-6,0Z"/><path class="cls-1" d="M19,32.16a62.61,62.61,0,0,1,6.85,0c2.14-.1,3.91-.1,6.05,0v.23l-2.14-.09H27.9c-1.91.08-3.29,0-5.23,0h-2L19,32.39Z"/><path class="cls-1" d="M19,31.72l1.73.12h2.14l2.94-.12V32A65,65,0,0,1,19,32Z"/><polygon class="cls-1" points="31.93 32.33 23.79 45.13 35.56 32.19 35.73 32.35 22.15 47.28 31.73 32.21 31.93 32.33"/><polygon class="cls-1" points="19.09 32.26 20.53 45.92 31.75 32.17 31.93 32.32 20.35 46.5 18.86 32.28 19.09 32.26"/><rect class="cls-1" x="12.92" y="40.99" width="18.95" height="0.23" transform="translate(-24.02 47.19) rotate(-68.89)"/><polygon class="cls-1" points="35.57 31.91 32.48 28.19 32.66 28.05 35.75 31.77 35.57 31.91"/><path class="cls-1" d="M26.28,26.1l-1.86,2,7.29,3.58.69-3.47Zm-.61,5.78L24.09,28.1c.7-.76,1.41-1.52,2.12-2.27L32.67,28l-.79,4-7.43-3.65,1.43,3.43Z"/><polygon class="cls-1" points="19.02 25.86 24.47 28.1 19.05 31.94 18.91 31.75 24 28.16 18.93 26.07 19.02 25.86"/><path class="cls-1" d="M19,25.85H29.57L38,31.79v.5L19.06,50l-.16-.17L37.73,32.19v-.28L29.5,26.08H19Z"/><path class="cls-1" d="M6.12,32.39l-1.4-.12H3.56a6,6,0,0,1-2.31,0H.57l-.41.13-.07-.22a4.11,4.11,0,0,1,2.2,0,19.05,19.05,0,0,1,3.85,0Z"/><path class="cls-1" d="M12.19,32a44.35,44.35,0,0,1-6,0,15.82,15.82,0,0,1-3.89,0,9.36,9.36,0,0,1-1.81.13L.1,32l.08-.22.36.13H1.3a5.13,5.13,0,0,1,2.24,0h1.2a17.39,17.39,0,0,1,3.75,0h1.59l2.09-.14Z"/><path class="cls-1" d="M19,32.39l-1.73-.12H15.29c-1.94.07-3.33.11-5.23,0H8.23l-2.13.09v-.23c2.14-.1,3.9-.1,6.05,0a62.61,62.61,0,0,1,6.85,0Z"/><path class="cls-1" d="M19,32a65,65,0,0,1-6.84,0v-.24l2.94.12h2.14L19,31.72Z"/><polygon class="cls-1" points="6.22 32.21 15.81 47.28 2.23 32.35 2.4 32.19 14.16 45.13 6.03 32.33 6.22 32.21"/><polygon class="cls-1" points="19.09 32.28 17.6 46.5 6.03 32.32 6.21 32.17 17.43 45.92 18.86 32.26 19.09 32.28"/><rect class="cls-1" x="15.45" y="31.63" width="0.23" height="18.95" transform="translate(-13.76 8.36) rotate(-21.11)"/><rect class="cls-1" x="1.42" y="29.86" width="4.84" height="0.23" transform="translate(-21.66 13.76) rotate(-50.24)"/><path class="cls-1" d="M13.54,28.09l-1.88-2L5.55,28.2l.7,3.47Zm-1.47,3.7,1.43-3.43L6.08,32c-.27-1.32-.53-2.64-.79-4l6.44-2.21,2.13,2.27-1.57,3.78Z"/><polygon class="cls-1" points="19.02 26.07 13.96 28.16 19.05 31.75 18.91 31.94 13.48 28.1 18.93 25.86 19.02 26.07"/><path class="cls-1" d="M19,26.08H8.46L.23,31.91v.28L19.06,49.83,18.9,50,0,32.29v-.5q4.19-3,8.39-5.94H19Z"/><polygon class="cls-1" points="21.49 25.16 21.28 25.53 21.08 25.41 21.29 25.05 21.49 25.16"/><rect class="cls-1" x="18.98" y="24.99" width="2.42" height="0.23"/><polygon class="cls-1" points="21.58 26.03 21.58 25.57 18.98 25.57 18.98 25.34 21.81 25.34 21.81 26.03 21.58 26.03"/><rect class="cls-1" x="16.62" y="25.08" width="0.23" height="0.42" transform="translate(-10.38 11.71) rotate(-29.91)"/><rect class="cls-1" x="16.63" y="24.99" width="2.41" height="0.23"/><polygon class="cls-1" points="16.21 26.03 16.21 25.34 19.03 25.34 19.03 25.57 16.44 25.57 16.44 26.03 16.21 26.03"/><path class="cls-1" d="M31.82,32.16a19,19,0,0,1,3.84,0,4.14,4.14,0,0,1,2.21,0l-.08.22-.4-.13h-.68a6,6,0,0,1-2.31,0H33.24l-1.4.12Z"/><path class="cls-1" d="M25.85,31.72l2.09.14H29.5a17.67,17.67,0,0,1,3.78,0h1.2a5.12,5.12,0,0,1,2.24,0h.76l.36-.13.08.22-.4.14A9.36,9.36,0,0,1,35.71,32a15.82,15.82,0,0,1-3.89,0,44.35,44.35,0,0,1-6,0Z"/><path class="cls-1" d="M19,32.16a62.61,62.61,0,0,1,6.85,0c2.14-.1,3.91-.1,6.05,0v.23l-2.14-.09H27.9c-1.91.08-3.29,0-5.23,0h-2L19,32.39Z"/><path class="cls-1" d="M19,31.72l1.73.12h2.14l2.94-.12V32A65,65,0,0,1,19,32Z"/><polygon class="cls-1" points="31.93 32.33 23.79 45.13 35.56 32.19 35.73 32.35 22.15 47.28 31.73 32.21 31.93 32.33"/><polygon class="cls-1" points="19.09 32.26 20.53 45.92 31.75 32.17 31.93 32.32 20.35 46.5 18.86 32.28 19.09 32.26"/><rect class="cls-1" x="12.92" y="40.99" width="18.95" height="0.23" transform="translate(-24.02 47.19) rotate(-68.89)"/><polygon class="cls-1" points="35.57 31.91 32.48 28.19 32.66 28.05 35.75 31.77 35.57 31.91"/><path class="cls-1" d="M26.28,26.1l-1.86,2,7.29,3.58.69-3.47Zm-.61,5.78L24.09,28.1c.7-.76,1.41-1.52,2.12-2.27L32.67,28l-.79,4-7.43-3.65,1.43,3.43Z"/><polygon class="cls-1" points="19.02 25.86 24.47 28.1 19.05 31.94 18.91 31.75 24 28.16 18.93 26.07 19.02 25.86"/><path class="cls-1" d="M19,25.85H29.57L38,31.79v.5L19.06,50l-.16-.17L37.73,32.19v-.28L29.5,26.08H19Z"/><path class="cls-1" d="M6.12,32.39l-1.4-.12H3.56a6,6,0,0,1-2.31,0H.57l-.41.13-.07-.22a4.11,4.11,0,0,1,2.2,0,19.05,19.05,0,0,1,3.85,0Z"/><path class="cls-1" d="M12.19,32a44.35,44.35,0,0,1-6,0,15.82,15.82,0,0,1-3.89,0,9.36,9.36,0,0,1-1.81.13L.1,32l.08-.22.36.13H1.3a5.13,5.13,0,0,1,2.24,0h1.2a17.39,17.39,0,0,1,3.75,0h1.59l2.09-.14Z"/><path class="cls-1" d="M19,32.39l-1.73-.12H15.29c-1.94.07-3.33.11-5.23,0H8.23l-2.13.09v-.23c2.14-.1,3.9-.1,6.05,0a62.61,62.61,0,0,1,6.85,0Z"/><path class="cls-1" d="M19,32a65,65,0,0,1-6.84,0v-.24l2.94.12h2.14L19,31.72Z"/><polygon class="cls-1" points="6.22 32.21 15.81 47.28 2.23 32.35 2.4 32.19 14.16 45.13 6.03 32.33 6.22 32.21"/><polygon class="cls-1" points="19.09 32.28 17.6 46.5 6.03 32.32 6.21 32.17 17.43 45.92 18.86 32.26 19.09 32.28"/><rect class="cls-1" x="15.45" y="31.63" width="0.23" height="18.95" transform="translate(-13.76 8.36) rotate(-21.11)"/><rect class="cls-1" x="1.42" y="29.86" width="4.84" height="0.23" transform="translate(-21.66 13.76) rotate(-50.24)"/><polygon class="cls-1" points="19.02 26.07 13.96 28.16 19.05 31.75 18.91 31.94 13.48 28.1 18.93 25.86 19.02 26.07"/><path class="cls-1" d="M19,26.08H8.46L.23,31.91v.28L19.06,49.83,18.9,50,0,32.29v-.5q4.19-3,8.39-5.94H19Z"/></svg>