<?xml version="1.0" encoding="utf-8"?>
<!-- Generator: Adobe Illustrator 23.0.6, SVG Export Plug-In . SVG Version: 6.00 Build 0)  -->
<svg version="1.1" id="Слой_1" xmlns="http://www.w3.org/2000/svg" xmlns:xlink="http://www.w3.org/1999/xlink" x="0px" y="0px"
	 viewBox="0 0 21.3 21.3" style="enable-background:new 0 0 21.3 21.3;" xml:space="preserve">
<style type="text/css">
	.st0{fill:#7E6579;}
</style>
<title>Телефон</title>
<g>
	<path class="st0" d="M15.5,21.3c-0.4,0-0.8-0.1-1.2-0.2c-6.4-2-11.7-7-14-13.4C-0.4,6.2,0,4.5,1.2,3.4l0.1-0.1C2.6,2,4,0.5,4.6,0.1
		C4.8,0,5,0,5.1,0c0.2,0,0.3,0.2,0.4,0.3c0.3,0.5,0.6,1,0.9,1.6c0.7,1.2,1.4,2.3,2,3.5c0.3,0.8-0.5,1.9-1,2.3C7,8.1,6.8,8.7,7.1,9.1
		c0,0,0.1,0.1,0.1,0.1c1,2.2,2.8,3.9,5,4.9c0.9,0.4,1.2,0.3,1.5-0.2c0.4-0.6,0.9-1,1.4-1.1c0.8-0.2,1.6,0.2,2.1,0.5
		c0.6,0.4,1.1,0.8,1.6,1.2c0.6,0.5,1.3,1,2.2,1.6c0.2,0.1,0.3,0.3,0.3,0.5s0,0.4-0.2,0.5c-1.3,1.5-2.7,2.8-4.3,3.9
		c0,0-0.1,0.1-0.1,0.1C16.3,21.2,15.9,21.3,15.5,21.3z M4.8,1.6C4,2.4,2.8,3.6,2.2,4.2L2.1,4.3C1.3,5,1.1,6.2,1.5,7.1
		c2.2,6.1,7.2,10.8,13.3,12.7c0.5,0.2,0.9,0.2,1.3,0c1.3-0.9,2.5-1.9,3.5-3.1C19,16.4,18.5,16,18,15.6c-0.5-0.4-1-0.8-1.6-1.1
		c-0.5-0.3-0.8-0.4-1.1-0.4c-0.2,0-0.4,0.2-0.6,0.5c-0.9,1.5-2.2,1.1-3.1,0.7C9.2,14.3,7.2,12.3,6,9.9c0,0,0,0,0,0
		C5.3,8.7,5.7,7.3,6.7,6.7c0.2-0.1,0.4-0.6,0.5-0.8C6.7,4.8,6,3.7,5.4,2.5C5.2,2.2,5,1.9,4.8,1.6z"/>
</g>
</svg>
