<svg style="width: 15px, height: 15px" xmlns="http://www.w3.org/2000/svg" viewBox="0 0 21.3 21.3"><defs><style>.cls-1{fill:#7e6579;}</style></defs><title>Акция</title><path class="cls-1" d="M8.35,21.3a2.7,2.7,0,0,1-1.91-.79L.79,14.86A2.71,2.71,0,0,1,.79,11L9.87,2C11.63.2,15.78-.06,19,0a2.4,2.4,0,0,1,2.33,2.33c.08,3.18-.2,7.33-1.95,9.08l-9.09,9.09A2.69,2.69,0,0,1,8.35,21.3ZM18,1.3c-3.61,0-6.21.56-7.23,1.58L1.71,12a1.39,1.39,0,0,0,0,2l5.65,5.65a1.41,1.41,0,0,0,2,0l9.08-9.08c1.1-1.1,1.67-4.07,1.57-8.14a1.09,1.09,0,0,0-1.07-1.06Z"/><circle class="cls-1" cx="14.29" cy="7.01" r="2.11"/></svg>
