<svg xmlns="http://www.w3.org/2000/svg" viewBox="0 0 15.39 17"><defs><style>.cls-1{fill:#7e6579;}</style></defs><title>Мусор</title><path class="cls-1" d="M15.39,3.74H13.6l.18-1.69A1.85,1.85,0,0,0,12,0H3.09A1.85,1.85,0,0,0,1.25,2.06l.2,1.68H0v1H1.57L3,17h9.13L13.49,4.74h1.9ZM2.25,2a.86.86,0,0,1,.2-.67A.86.86,0,0,1,3.09,1H12a.86.86,0,0,1,.63.28.84.84,0,0,1,.21.66l-.2,1.8H2.46Zm9,14.05H3.9L2.57,4.74h9.91Z"/><rect class="cls-1" x="5.22" y="6.62" width="1" height="6.65" transform="translate(-1.15 0.76) rotate(-6.91)"/><rect class="cls-1" x="6.31" y="9.44" width="6.63" height="1" transform="matrix(0.09, -1, 1, 0.09, -1.15, 18.62)"/></svg>
